G04 #@! TF.GenerationSoftware,KiCad,Pcbnew,7.0.8*
G04 #@! TF.CreationDate,2024-01-24T14:29:51-05:00*
G04 #@! TF.ProjectId,ESP32 Soil Moisture Sensor,45535033-3220-4536-9f69-6c204d6f6973,rev?*
G04 #@! TF.SameCoordinates,Original*
G04 #@! TF.FileFunction,Copper,L1,Top*
G04 #@! TF.FilePolarity,Positive*
%FSLAX46Y46*%
G04 Gerber Fmt 4.6, Leading zero omitted, Abs format (unit mm)*
G04 Created by KiCad (PCBNEW 7.0.8) date 2024-01-24 14:29:51*
%MOMM*%
%LPD*%
G01*
G04 APERTURE LIST*
G04 Aperture macros list*
%AMRoundRect*
0 Rectangle with rounded corners*
0 $1 Rounding radius*
0 $2 $3 $4 $5 $6 $7 $8 $9 X,Y pos of 4 corners*
0 Add a 4 corners polygon primitive as box body*
4,1,4,$2,$3,$4,$5,$6,$7,$8,$9,$2,$3,0*
0 Add four circle primitives for the rounded corners*
1,1,$1+$1,$2,$3*
1,1,$1+$1,$4,$5*
1,1,$1+$1,$6,$7*
1,1,$1+$1,$8,$9*
0 Add four rect primitives between the rounded corners*
20,1,$1+$1,$2,$3,$4,$5,0*
20,1,$1+$1,$4,$5,$6,$7,0*
20,1,$1+$1,$6,$7,$8,$9,0*
20,1,$1+$1,$8,$9,$2,$3,0*%
G04 Aperture macros list end*
G04 #@! TA.AperFunction,NonConductor*
%ADD10C,0.200000*%
G04 #@! TD*
G04 #@! TA.AperFunction,SMDPad,CuDef*
%ADD11R,1.524000X0.762000*%
G04 #@! TD*
G04 #@! TA.AperFunction,ComponentPad*
%ADD12R,2.030000X1.730000*%
G04 #@! TD*
G04 #@! TA.AperFunction,ComponentPad*
%ADD13O,2.030000X1.730000*%
G04 #@! TD*
G04 #@! TA.AperFunction,ComponentPad*
%ADD14C,1.320800*%
G04 #@! TD*
G04 #@! TA.AperFunction,SMDPad,CuDef*
%ADD15RoundRect,0.100000X0.100000X-0.130000X0.100000X0.130000X-0.100000X0.130000X-0.100000X-0.130000X0*%
G04 #@! TD*
G04 #@! TA.AperFunction,SMDPad,CuDef*
%ADD16R,1.500000X0.900000*%
G04 #@! TD*
G04 #@! TA.AperFunction,SMDPad,CuDef*
%ADD17R,0.900000X0.900000*%
G04 #@! TD*
G04 #@! TA.AperFunction,SMDPad,CuDef*
%ADD18RoundRect,0.100000X-0.100000X0.130000X-0.100000X-0.130000X0.100000X-0.130000X0.100000X0.130000X0*%
G04 #@! TD*
G04 #@! TA.AperFunction,ViaPad*
%ADD19C,0.800000*%
G04 #@! TD*
G04 #@! TA.AperFunction,Conductor*
%ADD20C,0.250000*%
G04 #@! TD*
G04 #@! TA.AperFunction,Conductor*
%ADD21C,0.800000*%
G04 #@! TD*
G04 #@! TA.AperFunction,Conductor*
%ADD22C,8.000000*%
G04 #@! TD*
G04 APERTURE END LIST*
D10*
X167000000Y-58942796D02*
X167000000Y-110000000D01*
X131000000Y-59092796D02*
X167000000Y-58942796D01*
X131000000Y-110000000D02*
X131000000Y-59092796D01*
X149000000Y-181000000D02*
X161000000Y-167000000D01*
X137000000Y-167000000D02*
X149000000Y-181000000D01*
X161000000Y-120000000D02*
X161000000Y-167000000D01*
X167000000Y-113000000D02*
X161000000Y-120000000D01*
X167000000Y-110000000D02*
X167000000Y-113000000D01*
X137000000Y-120000000D02*
X137000000Y-167000000D01*
X131000000Y-113000000D02*
X137000000Y-120000000D01*
X131000000Y-110000000D02*
X131000000Y-113000000D01*
D11*
X147802600Y-95752100D03*
X147802600Y-100247900D03*
X156997400Y-100247900D03*
X156997400Y-95752100D03*
D12*
X162840000Y-95620000D03*
D13*
X162840000Y-93080000D03*
X162840000Y-90540000D03*
X162840000Y-88000000D03*
D14*
X160895101Y-63982600D03*
X158895099Y-63982600D03*
D12*
X161000000Y-82620000D03*
D13*
X161000000Y-80080000D03*
X161000000Y-77540000D03*
X161000000Y-75000000D03*
D15*
X133005000Y-76175000D03*
X133005000Y-75535000D03*
D16*
X136170000Y-67310000D03*
X136170000Y-68580000D03*
X136170000Y-69850000D03*
X136170000Y-71120000D03*
X136170000Y-72390000D03*
X136170000Y-73660000D03*
X136170000Y-74930000D03*
X136170000Y-76200000D03*
X136170000Y-77470000D03*
X136170000Y-78740000D03*
X136170000Y-80010000D03*
X136170000Y-81280000D03*
X136170000Y-82550000D03*
X136170000Y-83820000D03*
X136170000Y-85090000D03*
X136170000Y-86360000D03*
X136170000Y-87630000D03*
X136170000Y-88900000D03*
X136170000Y-90170000D03*
X153670000Y-90170000D03*
X153670000Y-88900000D03*
X153670000Y-87630000D03*
X153670000Y-86360000D03*
X153670000Y-85090000D03*
X153670000Y-83820000D03*
X153670000Y-82550000D03*
X153670000Y-81280000D03*
X153670000Y-80010000D03*
X153670000Y-78740000D03*
X153670000Y-77470000D03*
X153670000Y-76200000D03*
X153670000Y-74930000D03*
X153670000Y-73660000D03*
X153670000Y-72390000D03*
X153670000Y-71120000D03*
X153670000Y-69850000D03*
X153670000Y-68580000D03*
X153670000Y-67310000D03*
D17*
X142015000Y-73705000D03*
X142020000Y-75105000D03*
X142020000Y-76505000D03*
X143420000Y-73705000D03*
X143420000Y-75105000D03*
X143420000Y-76505000D03*
X144820000Y-73705000D03*
X144820000Y-75105000D03*
X144820000Y-76505000D03*
D15*
X133005000Y-71750000D03*
X133005000Y-71110000D03*
D18*
X133005000Y-73340000D03*
X133005000Y-73980000D03*
D15*
X133005000Y-70000000D03*
X133005000Y-69360000D03*
D19*
X157000000Y-72000000D03*
X157000000Y-70000000D03*
X165000000Y-73000000D03*
X161000000Y-72000000D03*
X156000000Y-84000000D03*
X140000000Y-68000000D03*
X139000000Y-71000000D03*
X157000000Y-79000000D03*
X139000000Y-86000000D03*
X157000000Y-81000000D03*
D20*
X133005000Y-69005000D02*
X133000000Y-69000000D01*
X133005000Y-69360000D02*
X133005000Y-69005000D01*
X132080000Y-74610000D02*
X133005000Y-75535000D01*
X156610000Y-72390000D02*
X153670000Y-72390000D01*
X157000000Y-72000000D02*
X156610000Y-72390000D01*
X162000000Y-70000000D02*
X157000000Y-70000000D01*
X165000000Y-73000000D02*
X162000000Y-70000000D01*
X154420000Y-72390000D02*
X153670000Y-72390000D01*
X160120000Y-71120000D02*
X153670000Y-71120000D01*
X161000000Y-72000000D02*
X160120000Y-71120000D01*
X153850000Y-84000000D02*
X153670000Y-83820000D01*
X156000000Y-84000000D02*
X153850000Y-84000000D01*
X139420000Y-68580000D02*
X136170000Y-68580000D01*
X140000000Y-68000000D02*
X139420000Y-68580000D01*
D21*
X151000000Y-112000000D02*
X149000000Y-114000000D01*
X151000000Y-86981472D02*
X151000000Y-112000000D01*
X149000000Y-114000000D02*
X149000000Y-120000000D01*
X152891472Y-85090000D02*
X151000000Y-86981472D01*
X153670000Y-85090000D02*
X152891472Y-85090000D01*
D22*
X149000000Y-120000000D02*
X149000000Y-166000000D01*
D20*
X147802600Y-100247900D02*
X147802600Y-95752100D01*
X147802600Y-90892600D02*
X147802600Y-95752100D01*
X136920000Y-80010000D02*
X136170000Y-80010000D01*
X147802600Y-90892600D02*
X136920000Y-80010000D01*
X154175000Y-67310000D02*
X153670000Y-67310000D01*
X138880000Y-71120000D02*
X136170000Y-71120000D01*
X139000000Y-71000000D02*
X138880000Y-71120000D01*
X159540000Y-79000000D02*
X157000000Y-79000000D01*
X161000000Y-77540000D02*
X159540000Y-79000000D01*
X138640000Y-86360000D02*
X136170000Y-86360000D01*
X139000000Y-86000000D02*
X138640000Y-86360000D01*
X157920000Y-80080000D02*
X157000000Y-81000000D01*
X161000000Y-80080000D02*
X157920000Y-80080000D01*
X157260000Y-86360000D02*
X153670000Y-86360000D01*
X161000000Y-82620000D02*
X157260000Y-86360000D01*
X143420000Y-76505000D02*
X143420000Y-75105000D01*
X142015000Y-73705000D02*
X142015000Y-75100000D01*
X144820000Y-76505000D02*
X144820000Y-75105000D01*
X142020000Y-75105000D02*
X143420000Y-75105000D01*
X132805000Y-69360000D02*
X133005000Y-69360000D01*
X132480000Y-70585000D02*
X132480000Y-69685000D01*
X143420000Y-75105000D02*
X144820000Y-75105000D01*
X133005000Y-71110000D02*
X132480000Y-70585000D01*
X132805000Y-71110000D02*
X132080000Y-71835000D01*
X142020000Y-76505000D02*
X143420000Y-76505000D01*
X143420000Y-76505000D02*
X144820000Y-76505000D01*
X144820000Y-73705000D02*
X144820000Y-75105000D01*
X142015000Y-75100000D02*
X142020000Y-75105000D01*
X144820000Y-73705000D02*
X143420000Y-73705000D01*
X142015000Y-73705000D02*
X143420000Y-73705000D01*
X132080000Y-71835000D02*
X132080000Y-74610000D01*
X143420000Y-75105000D02*
X143420000Y-73705000D01*
X142020000Y-76505000D02*
X142020000Y-75105000D01*
X132480000Y-69685000D02*
X132805000Y-69360000D01*
X133005000Y-71110000D02*
X132805000Y-71110000D01*
X134883388Y-73660000D02*
X134883388Y-74496612D01*
X135146776Y-69850000D02*
X134883388Y-70113388D01*
X136170000Y-69850000D02*
X135146776Y-69850000D01*
X134883388Y-74496612D02*
X133205000Y-76175000D01*
X133205000Y-76175000D02*
X133005000Y-76175000D01*
X134883388Y-70113388D02*
X134883388Y-73660000D01*
X133005000Y-73980000D02*
X134563388Y-73980000D01*
X134563388Y-73980000D02*
X134883388Y-73660000D01*
X134433388Y-71120000D02*
X134433388Y-69926992D01*
X133005000Y-70000000D02*
X134360380Y-70000000D01*
X134360380Y-70000000D02*
X135780380Y-68580000D01*
X133005000Y-73340000D02*
X134433388Y-71911612D01*
X135780380Y-68580000D02*
X136170000Y-68580000D01*
X133005000Y-71750000D02*
X133803388Y-71750000D01*
X133803388Y-71750000D02*
X134433388Y-71120000D01*
X134433388Y-69926992D02*
X134360380Y-70000000D01*
X134433388Y-71911612D02*
X134433388Y-71120000D01*
G04 #@! TA.AperFunction,Conductor*
G36*
X166342104Y-59565726D02*
G01*
X166388079Y-59618339D01*
X166399500Y-59670320D01*
X166399500Y-112731989D01*
X166379815Y-112799028D01*
X166369648Y-112812687D01*
X160593201Y-119551874D01*
X160574551Y-119569543D01*
X160571719Y-119571716D01*
X160534498Y-119620221D01*
X160532389Y-119622821D01*
X160518456Y-119639078D01*
X160518444Y-119639094D01*
X160510849Y-119650743D01*
X160508104Y-119654620D01*
X160475462Y-119697160D01*
X160470927Y-119708108D01*
X160460252Y-119728354D01*
X160453782Y-119738279D01*
X160453780Y-119738284D01*
X160437124Y-119789237D01*
X160435474Y-119793699D01*
X160414956Y-119843235D01*
X160414955Y-119843238D01*
X160413409Y-119854981D01*
X160408337Y-119877306D01*
X160404655Y-119888570D01*
X160404655Y-119888574D01*
X160401755Y-119942101D01*
X160401316Y-119946833D01*
X160399500Y-119960638D01*
X160399500Y-119982064D01*
X160399409Y-119985412D01*
X160396102Y-120046454D01*
X160396102Y-120046458D01*
X160396103Y-120046459D01*
X160396836Y-120049938D01*
X160399500Y-120075502D01*
X160399500Y-166731989D01*
X160379815Y-166799028D01*
X160369648Y-166812687D01*
X149094148Y-179967437D01*
X149035573Y-180005527D01*
X148965705Y-180005902D01*
X148906725Y-179968444D01*
X148905852Y-179967437D01*
X137630352Y-166812687D01*
X137601669Y-166748976D01*
X137600500Y-166731989D01*
X137600500Y-166105533D01*
X144499500Y-166105533D01*
X144514345Y-166421897D01*
X144514345Y-166421902D01*
X144514346Y-166421907D01*
X144573559Y-166840075D01*
X144671681Y-167250903D01*
X144671684Y-167250911D01*
X144807828Y-167650697D01*
X144807835Y-167650714D01*
X144980826Y-168036012D01*
X144980828Y-168036016D01*
X145189143Y-168403429D01*
X145189148Y-168403437D01*
X145430937Y-168749707D01*
X145430946Y-168749719D01*
X145430948Y-168749722D01*
X145430950Y-168749724D01*
X145704121Y-169071852D01*
X146006256Y-169366986D01*
X146006260Y-169366989D01*
X146006265Y-169366994D01*
X146175240Y-169503608D01*
X146334700Y-169632530D01*
X146686567Y-169866151D01*
X146686574Y-169866155D01*
X146686573Y-169866155D01*
X147058753Y-170065791D01*
X147058762Y-170065795D01*
X147058764Y-170065796D01*
X147448021Y-170229711D01*
X147850917Y-170356456D01*
X148263911Y-170444915D01*
X148683374Y-170494313D01*
X149105619Y-170504214D01*
X149105620Y-170504213D01*
X149105625Y-170504214D01*
X149105628Y-170504213D01*
X149526937Y-170474532D01*
X149943623Y-170405528D01*
X150352017Y-170297807D01*
X150748529Y-170152318D01*
X151129675Y-169970338D01*
X151492106Y-169753466D01*
X151832636Y-169503609D01*
X152148272Y-169222961D01*
X152436241Y-168913991D01*
X152562812Y-168749707D01*
X152694006Y-168579421D01*
X152694011Y-168579414D01*
X152694013Y-168579412D01*
X152919321Y-168222165D01*
X153110187Y-167845390D01*
X153264931Y-167452397D01*
X153269001Y-167438316D01*
X153286303Y-167378446D01*
X153382196Y-167046641D01*
X153421400Y-166840075D01*
X153460947Y-166631699D01*
X153460949Y-166631682D01*
X153500500Y-166211177D01*
X153500500Y-119894464D01*
X153498096Y-119843235D01*
X153485655Y-119578103D01*
X153426438Y-119159913D01*
X153328321Y-118749106D01*
X153259704Y-118547612D01*
X153192171Y-118349302D01*
X153192164Y-118349285D01*
X153019173Y-117963987D01*
X153019171Y-117963983D01*
X152810856Y-117596570D01*
X152810851Y-117596562D01*
X152569062Y-117250292D01*
X152569053Y-117250280D01*
X152569050Y-117250276D01*
X152295879Y-116928148D01*
X151993744Y-116633014D01*
X151993739Y-116633010D01*
X151993734Y-116633005D01*
X151665312Y-116367480D01*
X151665300Y-116367470D01*
X151665293Y-116367465D01*
X151665290Y-116367463D01*
X151313425Y-116133844D01*
X151313426Y-116133844D01*
X150941246Y-115934208D01*
X150941228Y-115934200D01*
X150551977Y-115770288D01*
X150551971Y-115770286D01*
X150149086Y-115643544D01*
X149998529Y-115611296D01*
X149937099Y-115578007D01*
X149903419Y-115516791D01*
X149900500Y-115490046D01*
X149900500Y-114424360D01*
X149920185Y-114357321D01*
X149936814Y-114336684D01*
X151579737Y-112693760D01*
X151594525Y-112681130D01*
X151605871Y-112672888D01*
X151652347Y-112621270D01*
X151654570Y-112618928D01*
X151670119Y-112603380D01*
X151683982Y-112586260D01*
X151686049Y-112583841D01*
X151732533Y-112532216D01*
X151739538Y-112520080D01*
X151750570Y-112504031D01*
X151759381Y-112493151D01*
X151759383Y-112493149D01*
X151790934Y-112431222D01*
X151792425Y-112428476D01*
X151827179Y-112368284D01*
X151831510Y-112354950D01*
X151838956Y-112336976D01*
X151845320Y-112324488D01*
X151863304Y-112257368D01*
X151864216Y-112254295D01*
X151885674Y-112188256D01*
X151887138Y-112174313D01*
X151890683Y-112155187D01*
X151894313Y-112141646D01*
X151897947Y-112072284D01*
X151898201Y-112069064D01*
X151900499Y-112047199D01*
X151900500Y-112047191D01*
X151900500Y-112025201D01*
X151900585Y-112021956D01*
X151904219Y-111952612D01*
X151902027Y-111938772D01*
X151900500Y-111919373D01*
X151900500Y-100497900D01*
X155735400Y-100497900D01*
X155735400Y-100676744D01*
X155741801Y-100736272D01*
X155741803Y-100736279D01*
X155792045Y-100870986D01*
X155792049Y-100870993D01*
X155878209Y-100986087D01*
X155878212Y-100986090D01*
X155993306Y-101072250D01*
X155993313Y-101072254D01*
X156128020Y-101122496D01*
X156128027Y-101122498D01*
X156187555Y-101128899D01*
X156187572Y-101128900D01*
X156747400Y-101128900D01*
X156747400Y-100497900D01*
X157247400Y-100497900D01*
X157247400Y-101128900D01*
X157807228Y-101128900D01*
X157807244Y-101128899D01*
X157866772Y-101122498D01*
X157866779Y-101122496D01*
X158001486Y-101072254D01*
X158001493Y-101072250D01*
X158116587Y-100986090D01*
X158116590Y-100986087D01*
X158202750Y-100870993D01*
X158202754Y-100870986D01*
X158252996Y-100736279D01*
X158252998Y-100736272D01*
X158259399Y-100676744D01*
X158259400Y-100676727D01*
X158259400Y-100497900D01*
X157247400Y-100497900D01*
X156747400Y-100497900D01*
X155735400Y-100497900D01*
X151900500Y-100497900D01*
X151900500Y-99997900D01*
X155735400Y-99997900D01*
X156747400Y-99997900D01*
X156747400Y-99366900D01*
X157247400Y-99366900D01*
X157247400Y-99997900D01*
X158259400Y-99997900D01*
X158259400Y-99819072D01*
X158259399Y-99819055D01*
X158252998Y-99759527D01*
X158252996Y-99759520D01*
X158202754Y-99624813D01*
X158202750Y-99624806D01*
X158116590Y-99509712D01*
X158116587Y-99509709D01*
X158001493Y-99423549D01*
X158001486Y-99423545D01*
X157866779Y-99373303D01*
X157866772Y-99373301D01*
X157807244Y-99366900D01*
X157247400Y-99366900D01*
X156747400Y-99366900D01*
X156187555Y-99366900D01*
X156128027Y-99373301D01*
X156128020Y-99373303D01*
X155993313Y-99423545D01*
X155993306Y-99423549D01*
X155878212Y-99509709D01*
X155878209Y-99509712D01*
X155792049Y-99624806D01*
X155792045Y-99624813D01*
X155741803Y-99759520D01*
X155741801Y-99759527D01*
X155735400Y-99819055D01*
X155735400Y-99997900D01*
X151900500Y-99997900D01*
X151900500Y-96002100D01*
X155735400Y-96002100D01*
X155735400Y-96180944D01*
X155741801Y-96240472D01*
X155741803Y-96240479D01*
X155792045Y-96375186D01*
X155792049Y-96375193D01*
X155878209Y-96490287D01*
X155878212Y-96490290D01*
X155993306Y-96576450D01*
X155993313Y-96576454D01*
X156128020Y-96626696D01*
X156128027Y-96626698D01*
X156187555Y-96633099D01*
X156187572Y-96633100D01*
X156747400Y-96633100D01*
X156747400Y-96002100D01*
X157247400Y-96002100D01*
X157247400Y-96633100D01*
X157807228Y-96633100D01*
X157807244Y-96633099D01*
X157866772Y-96626698D01*
X157866779Y-96626696D01*
X158001486Y-96576454D01*
X158001493Y-96576450D01*
X158116587Y-96490290D01*
X158116590Y-96490287D01*
X158202750Y-96375193D01*
X158202754Y-96375186D01*
X158252996Y-96240479D01*
X158252998Y-96240472D01*
X158259399Y-96180944D01*
X158259400Y-96180927D01*
X158259400Y-96002100D01*
X157247400Y-96002100D01*
X156747400Y-96002100D01*
X155735400Y-96002100D01*
X151900500Y-96002100D01*
X151900500Y-95502100D01*
X155735400Y-95502100D01*
X156747400Y-95502100D01*
X156747400Y-94871100D01*
X157247400Y-94871100D01*
X157247400Y-95502100D01*
X158259400Y-95502100D01*
X158259400Y-95323272D01*
X158259399Y-95323255D01*
X158252998Y-95263727D01*
X158252996Y-95263720D01*
X158202754Y-95129013D01*
X158202750Y-95129006D01*
X158116590Y-95013912D01*
X158116587Y-95013909D01*
X158001493Y-94927749D01*
X158001486Y-94927745D01*
X157866779Y-94877503D01*
X157866772Y-94877501D01*
X157807244Y-94871100D01*
X157247400Y-94871100D01*
X156747400Y-94871100D01*
X156187555Y-94871100D01*
X156128027Y-94877501D01*
X156128020Y-94877503D01*
X155993313Y-94927745D01*
X155993306Y-94927749D01*
X155878212Y-95013909D01*
X155878209Y-95013912D01*
X155792049Y-95129006D01*
X155792045Y-95129013D01*
X155741803Y-95263720D01*
X155741801Y-95263727D01*
X155735400Y-95323255D01*
X155735400Y-95502100D01*
X151900500Y-95502100D01*
X151900500Y-93021837D01*
X161320798Y-93021837D01*
X161330662Y-93254066D01*
X161330662Y-93254067D01*
X161379634Y-93481296D01*
X161466299Y-93696972D01*
X161588172Y-93894907D01*
X161667827Y-93985412D01*
X161735712Y-94062545D01*
X161744034Y-94072000D01*
X161773549Y-94135330D01*
X161764140Y-94204563D01*
X161718794Y-94257719D01*
X161694285Y-94270106D01*
X161582912Y-94311646D01*
X161582906Y-94311649D01*
X161467812Y-94397809D01*
X161467809Y-94397812D01*
X161381649Y-94512906D01*
X161381645Y-94512913D01*
X161331403Y-94647620D01*
X161331401Y-94647627D01*
X161325000Y-94707155D01*
X161325000Y-95370000D01*
X162394428Y-95370000D01*
X162371318Y-95405960D01*
X162330000Y-95546673D01*
X162330000Y-95693327D01*
X162371318Y-95834040D01*
X162394428Y-95870000D01*
X161325000Y-95870000D01*
X161325000Y-96532844D01*
X161331401Y-96592372D01*
X161331403Y-96592379D01*
X161381645Y-96727086D01*
X161381649Y-96727093D01*
X161467809Y-96842187D01*
X161467812Y-96842190D01*
X161582906Y-96928350D01*
X161582913Y-96928354D01*
X161717620Y-96978596D01*
X161717627Y-96978598D01*
X161777155Y-96984999D01*
X161777172Y-96985000D01*
X162590000Y-96985000D01*
X162590000Y-96066494D01*
X162694839Y-96114373D01*
X162803527Y-96130000D01*
X162876473Y-96130000D01*
X162985161Y-96114373D01*
X163090000Y-96066494D01*
X163090000Y-96985000D01*
X163902828Y-96985000D01*
X163902844Y-96984999D01*
X163962372Y-96978598D01*
X163962379Y-96978596D01*
X164097086Y-96928354D01*
X164097093Y-96928350D01*
X164212187Y-96842190D01*
X164212190Y-96842187D01*
X164298350Y-96727093D01*
X164298354Y-96727086D01*
X164348596Y-96592379D01*
X164348598Y-96592372D01*
X164354999Y-96532844D01*
X164355000Y-96532827D01*
X164355000Y-95870000D01*
X163285572Y-95870000D01*
X163308682Y-95834040D01*
X163350000Y-95693327D01*
X163350000Y-95546673D01*
X163308682Y-95405960D01*
X163285572Y-95370000D01*
X164355000Y-95370000D01*
X164355000Y-94707172D01*
X164354999Y-94707155D01*
X164348598Y-94647627D01*
X164348596Y-94647620D01*
X164298354Y-94512913D01*
X164298350Y-94512906D01*
X164212190Y-94397812D01*
X164212187Y-94397809D01*
X164097093Y-94311649D01*
X164097086Y-94311645D01*
X163980737Y-94268250D01*
X163924803Y-94226379D01*
X163900386Y-94160915D01*
X163915238Y-94092642D01*
X163938267Y-94062548D01*
X164018749Y-93985413D01*
X164156967Y-93798530D01*
X164261613Y-93590976D01*
X164329678Y-93368723D01*
X164359202Y-93138163D01*
X164349337Y-92905930D01*
X164300366Y-92678705D01*
X164213699Y-92463024D01*
X164091827Y-92265093D01*
X163938259Y-92090605D01*
X163938256Y-92090602D01*
X163938253Y-92090599D01*
X163757416Y-91944584D01*
X163757410Y-91944580D01*
X163710370Y-91918302D01*
X163661444Y-91868422D01*
X163647251Y-91800009D01*
X163672298Y-91734784D01*
X163701407Y-91707313D01*
X163748594Y-91675420D01*
X163850936Y-91606249D01*
X164018749Y-91445413D01*
X164156967Y-91258530D01*
X164223746Y-91126080D01*
X164271501Y-91075083D01*
X164339250Y-91057999D01*
X164405481Y-91080255D01*
X164422148Y-91094226D01*
X164497738Y-91169816D01*
X164550633Y-91203052D01*
X164638928Y-91258532D01*
X164650478Y-91265789D01*
X164820745Y-91325368D01*
X164820750Y-91325369D01*
X164911246Y-91335565D01*
X164955040Y-91340499D01*
X164955043Y-91340500D01*
X164955046Y-91340500D01*
X165044957Y-91340500D01*
X165044958Y-91340499D01*
X165112104Y-91332934D01*
X165179249Y-91325369D01*
X165179252Y-91325368D01*
X165179255Y-91325368D01*
X165349522Y-91265789D01*
X165502262Y-91169816D01*
X165629816Y-91042262D01*
X165725789Y-90889522D01*
X165785368Y-90719255D01*
X165785369Y-90719249D01*
X165805565Y-90540003D01*
X165805565Y-90539996D01*
X165785369Y-90360750D01*
X165785368Y-90360745D01*
X165725788Y-90190476D01*
X165629815Y-90037737D01*
X165502262Y-89910184D01*
X165349523Y-89814211D01*
X165179254Y-89754631D01*
X165179249Y-89754630D01*
X165044960Y-89739500D01*
X165044954Y-89739500D01*
X164955046Y-89739500D01*
X164955039Y-89739500D01*
X164820750Y-89754630D01*
X164820745Y-89754631D01*
X164650476Y-89814211D01*
X164497739Y-89910183D01*
X164424181Y-89983741D01*
X164362857Y-90017225D01*
X164293166Y-90012240D01*
X164237232Y-89970369D01*
X164221442Y-89942293D01*
X164213700Y-89923027D01*
X164213699Y-89923024D01*
X164091827Y-89725093D01*
X163938259Y-89550605D01*
X163938256Y-89550602D01*
X163938253Y-89550599D01*
X163757416Y-89404584D01*
X163757410Y-89404580D01*
X163745402Y-89397872D01*
X163710369Y-89378301D01*
X163661444Y-89328422D01*
X163647251Y-89260009D01*
X163672298Y-89194784D01*
X163701407Y-89167313D01*
X163748594Y-89135420D01*
X163850936Y-89066249D01*
X164018749Y-88905413D01*
X164156967Y-88718530D01*
X164261613Y-88510976D01*
X164329678Y-88288723D01*
X164359202Y-88058163D01*
X164349337Y-87825930D01*
X164300366Y-87598705D01*
X164213699Y-87383024D01*
X164091827Y-87185093D01*
X163938259Y-87010605D01*
X163938256Y-87010602D01*
X163938253Y-87010599D01*
X163757416Y-86864584D01*
X163757410Y-86864579D01*
X163554488Y-86751220D01*
X163335323Y-86673784D01*
X163335313Y-86673781D01*
X163106230Y-86634500D01*
X163106221Y-86634500D01*
X162631993Y-86634500D01*
X162631987Y-86634500D01*
X162458399Y-86649273D01*
X162233453Y-86707845D01*
X162233449Y-86707846D01*
X162021654Y-86803583D01*
X162021642Y-86803590D01*
X161829065Y-86933749D01*
X161661251Y-87094586D01*
X161523035Y-87281467D01*
X161523032Y-87281471D01*
X161418387Y-87489022D01*
X161350321Y-87711278D01*
X161320798Y-87941837D01*
X161330662Y-88174066D01*
X161330662Y-88174067D01*
X161379634Y-88401296D01*
X161466299Y-88616972D01*
X161588170Y-88814903D01*
X161588171Y-88814905D01*
X161588173Y-88814907D01*
X161741741Y-88989395D01*
X161741743Y-88989396D01*
X161741746Y-88989400D01*
X161922583Y-89135415D01*
X161922593Y-89135422D01*
X161969630Y-89161699D01*
X162018556Y-89211578D01*
X162032748Y-89279992D01*
X162007700Y-89345217D01*
X161978592Y-89372687D01*
X161829065Y-89473749D01*
X161661251Y-89634586D01*
X161523035Y-89821467D01*
X161523032Y-89821471D01*
X161418387Y-90029022D01*
X161350321Y-90251278D01*
X161320798Y-90481837D01*
X161330662Y-90714066D01*
X161330662Y-90714067D01*
X161379634Y-90941296D01*
X161453887Y-91126083D01*
X161466301Y-91156976D01*
X161522715Y-91248598D01*
X161588170Y-91354903D01*
X161588171Y-91354905D01*
X161588173Y-91354907D01*
X161741741Y-91529395D01*
X161741743Y-91529396D01*
X161741746Y-91529400D01*
X161922583Y-91675415D01*
X161922593Y-91675422D01*
X161969630Y-91701699D01*
X162018556Y-91751578D01*
X162032748Y-91819992D01*
X162007700Y-91885217D01*
X161978592Y-91912687D01*
X161829065Y-92013749D01*
X161661251Y-92174586D01*
X161523035Y-92361467D01*
X161523032Y-92361471D01*
X161418387Y-92569022D01*
X161350321Y-92791278D01*
X161320798Y-93021837D01*
X151900500Y-93021837D01*
X151900500Y-87405832D01*
X151920185Y-87338793D01*
X151936815Y-87318155D01*
X152207819Y-87047150D01*
X152269142Y-87013666D01*
X152338834Y-87018650D01*
X152394767Y-87060522D01*
X152419184Y-87125986D01*
X152419500Y-87134832D01*
X152419500Y-88127870D01*
X152419501Y-88127876D01*
X152425908Y-88187481D01*
X152438659Y-88221669D01*
X152443642Y-88291361D01*
X152438659Y-88308331D01*
X152425908Y-88342518D01*
X152419589Y-88401295D01*
X152419501Y-88402123D01*
X152419500Y-88402135D01*
X152419500Y-89397870D01*
X152419501Y-89397876D01*
X152425908Y-89457481D01*
X152438659Y-89491669D01*
X152443642Y-89561361D01*
X152438659Y-89578331D01*
X152425908Y-89612518D01*
X152423536Y-89634586D01*
X152419501Y-89672123D01*
X152419500Y-89672135D01*
X152419500Y-90667870D01*
X152419501Y-90667876D01*
X152425908Y-90727483D01*
X152476202Y-90862328D01*
X152476206Y-90862335D01*
X152562452Y-90977544D01*
X152562455Y-90977547D01*
X152677664Y-91063793D01*
X152677671Y-91063797D01*
X152812517Y-91114091D01*
X152812516Y-91114091D01*
X152819444Y-91114835D01*
X152872127Y-91120500D01*
X154467872Y-91120499D01*
X154527483Y-91114091D01*
X154662331Y-91063796D01*
X154777546Y-90977546D01*
X154863796Y-90862331D01*
X154914091Y-90727483D01*
X154920500Y-90667873D01*
X154920499Y-89672128D01*
X154914091Y-89612517D01*
X154901340Y-89578332D01*
X154896357Y-89508642D01*
X154901340Y-89491669D01*
X154914091Y-89457483D01*
X154920500Y-89397873D01*
X154920499Y-88402128D01*
X154914091Y-88342517D01*
X154901340Y-88308332D01*
X154896357Y-88238642D01*
X154901340Y-88221669D01*
X154914091Y-88187483D01*
X154920500Y-88127873D01*
X154920499Y-87132128D01*
X154920498Y-87132116D01*
X154920498Y-87132114D01*
X154919492Y-87122757D01*
X154931896Y-87053997D01*
X154979506Y-87002859D01*
X155042781Y-86985500D01*
X157177257Y-86985500D01*
X157192877Y-86987224D01*
X157192904Y-86986939D01*
X157200660Y-86987671D01*
X157200667Y-86987673D01*
X157269814Y-86985500D01*
X157299350Y-86985500D01*
X157306228Y-86984630D01*
X157312041Y-86984172D01*
X157358627Y-86982709D01*
X157377869Y-86977117D01*
X157396912Y-86973174D01*
X157416792Y-86970664D01*
X157460122Y-86953507D01*
X157465646Y-86951617D01*
X157469396Y-86950527D01*
X157510390Y-86938618D01*
X157527629Y-86928422D01*
X157545103Y-86919862D01*
X157563727Y-86912488D01*
X157563727Y-86912487D01*
X157563732Y-86912486D01*
X157601449Y-86885082D01*
X157606305Y-86881892D01*
X157646420Y-86858170D01*
X157660589Y-86843999D01*
X157675379Y-86831368D01*
X157691587Y-86819594D01*
X157721299Y-86783676D01*
X157725212Y-86779376D01*
X160482771Y-84021818D01*
X160544094Y-83988333D01*
X160570452Y-83985499D01*
X162062871Y-83985499D01*
X162062872Y-83985499D01*
X162122483Y-83979091D01*
X162257331Y-83928796D01*
X162372546Y-83842546D01*
X162458796Y-83727331D01*
X162509091Y-83592483D01*
X162515500Y-83532873D01*
X162515499Y-81707128D01*
X162509091Y-81647517D01*
X162493893Y-81606770D01*
X162458797Y-81512671D01*
X162458793Y-81512664D01*
X162372547Y-81397455D01*
X162372544Y-81397452D01*
X162257335Y-81311206D01*
X162257328Y-81311202D01*
X162141138Y-81267866D01*
X162085204Y-81225995D01*
X162060787Y-81160530D01*
X162075639Y-81092257D01*
X162098669Y-81062163D01*
X162178749Y-80985413D01*
X162316967Y-80798530D01*
X162421613Y-80590976D01*
X162489678Y-80368723D01*
X162519202Y-80138163D01*
X162509337Y-79905930D01*
X162460366Y-79678705D01*
X162373699Y-79463024D01*
X162251827Y-79265093D01*
X162098259Y-79090605D01*
X162098256Y-79090602D01*
X162098253Y-79090599D01*
X161917416Y-78944584D01*
X161917410Y-78944580D01*
X161870370Y-78918302D01*
X161821444Y-78868422D01*
X161807251Y-78800009D01*
X161832298Y-78734784D01*
X161861407Y-78707313D01*
X161973256Y-78631716D01*
X162010936Y-78606249D01*
X162178749Y-78445413D01*
X162316967Y-78258530D01*
X162421613Y-78050976D01*
X162489678Y-77828723D01*
X162519202Y-77598163D01*
X162509337Y-77365930D01*
X162460366Y-77138705D01*
X162373699Y-76923024D01*
X162251827Y-76725093D01*
X162098259Y-76550605D01*
X162098256Y-76550602D01*
X162098253Y-76550599D01*
X161917416Y-76404584D01*
X161917405Y-76404577D01*
X161869880Y-76378027D01*
X161820954Y-76328147D01*
X161806762Y-76259734D01*
X161831810Y-76194508D01*
X161860918Y-76167039D01*
X162010621Y-76065857D01*
X162010624Y-76065855D01*
X162178372Y-75905080D01*
X162178373Y-75905079D01*
X162316537Y-75718271D01*
X162421144Y-75510794D01*
X162421147Y-75510788D01*
X162489187Y-75288612D01*
X162494132Y-75250000D01*
X161445572Y-75250000D01*
X161468682Y-75214040D01*
X161510000Y-75073327D01*
X161510000Y-74926673D01*
X161468682Y-74785960D01*
X161445572Y-74750000D01*
X162492461Y-74750000D01*
X162492460Y-74749999D01*
X162459885Y-74598850D01*
X162459885Y-74598849D01*
X162373251Y-74383253D01*
X162251422Y-74185389D01*
X162097914Y-74010971D01*
X162097912Y-74010969D01*
X161917131Y-73864997D01*
X161714277Y-73751675D01*
X161495201Y-73674271D01*
X161495189Y-73674268D01*
X161266187Y-73635000D01*
X161250000Y-73635000D01*
X161250000Y-74553505D01*
X161145161Y-74505627D01*
X161036473Y-74490000D01*
X160963527Y-74490000D01*
X160854839Y-74505627D01*
X160750000Y-74553505D01*
X160750000Y-73638575D01*
X160618484Y-73649768D01*
X160393620Y-73708318D01*
X160181895Y-73804023D01*
X160181887Y-73804028D01*
X159989378Y-73934142D01*
X159989375Y-73934144D01*
X159821627Y-74094919D01*
X159821626Y-74094920D01*
X159683462Y-74281728D01*
X159578855Y-74489205D01*
X159578852Y-74489211D01*
X159510812Y-74711387D01*
X159505868Y-74750000D01*
X160554428Y-74750000D01*
X160531318Y-74785960D01*
X160490000Y-74926673D01*
X160490000Y-75073327D01*
X160531318Y-75214040D01*
X160554428Y-75250000D01*
X159507539Y-75250000D01*
X159540114Y-75401149D01*
X159540114Y-75401150D01*
X159626748Y-75616746D01*
X159748577Y-75814610D01*
X159902085Y-75989028D01*
X159902087Y-75989030D01*
X160082870Y-76135003D01*
X160082870Y-76135004D01*
X160130093Y-76161384D01*
X160179020Y-76211264D01*
X160193212Y-76279677D01*
X160168164Y-76344903D01*
X160139056Y-76372373D01*
X159989065Y-76473749D01*
X159821251Y-76634586D01*
X159683035Y-76821467D01*
X159683032Y-76821471D01*
X159616255Y-76953917D01*
X159568497Y-77004916D01*
X159500748Y-77022000D01*
X159434518Y-76999743D01*
X159417851Y-76985773D01*
X159342262Y-76910184D01*
X159189523Y-76814211D01*
X159019254Y-76754631D01*
X159019249Y-76754630D01*
X158884960Y-76739500D01*
X158884954Y-76739500D01*
X158795046Y-76739500D01*
X158795039Y-76739500D01*
X158660750Y-76754630D01*
X158660745Y-76754631D01*
X158490476Y-76814211D01*
X158337737Y-76910184D01*
X158210184Y-77037737D01*
X158114211Y-77190476D01*
X158054631Y-77360745D01*
X158054630Y-77360750D01*
X158034435Y-77539996D01*
X158034435Y-77540003D01*
X158054630Y-77719249D01*
X158054631Y-77719254D01*
X158114211Y-77889523D01*
X158210184Y-78042262D01*
X158330741Y-78162819D01*
X158364226Y-78224142D01*
X158359242Y-78293834D01*
X158317370Y-78349767D01*
X158251906Y-78374184D01*
X158243060Y-78374500D01*
X157703748Y-78374500D01*
X157636709Y-78354815D01*
X157611600Y-78333474D01*
X157605873Y-78327114D01*
X157605869Y-78327110D01*
X157452734Y-78215851D01*
X157452729Y-78215848D01*
X157279807Y-78138857D01*
X157279802Y-78138855D01*
X157134001Y-78107865D01*
X157094646Y-78099500D01*
X156905354Y-78099500D01*
X156872897Y-78106398D01*
X156720197Y-78138855D01*
X156720192Y-78138857D01*
X156547270Y-78215848D01*
X156547265Y-78215851D01*
X156394129Y-78327111D01*
X156267466Y-78467785D01*
X156172821Y-78631715D01*
X156172818Y-78631722D01*
X156138803Y-78736411D01*
X156114326Y-78811744D01*
X156094540Y-79000000D01*
X156114326Y-79188256D01*
X156114327Y-79188259D01*
X156172818Y-79368277D01*
X156172821Y-79368284D01*
X156267467Y-79532216D01*
X156351828Y-79625908D01*
X156394129Y-79672888D01*
X156547265Y-79784148D01*
X156547270Y-79784151D01*
X156720192Y-79861142D01*
X156720197Y-79861144D01*
X156802839Y-79878710D01*
X156864321Y-79911902D01*
X156898097Y-79973065D01*
X156893445Y-80042780D01*
X156851840Y-80098912D01*
X156802839Y-80121290D01*
X156720197Y-80138855D01*
X156720192Y-80138857D01*
X156547270Y-80215848D01*
X156547265Y-80215851D01*
X156394129Y-80327111D01*
X156267466Y-80467785D01*
X156172821Y-80631715D01*
X156172818Y-80631722D01*
X156118619Y-80798532D01*
X156114326Y-80811744D01*
X156094540Y-81000000D01*
X156114326Y-81188256D01*
X156114327Y-81188259D01*
X156172818Y-81368277D01*
X156172821Y-81368284D01*
X156267467Y-81532216D01*
X156329164Y-81600737D01*
X156394129Y-81672888D01*
X156547265Y-81784148D01*
X156547270Y-81784151D01*
X156720192Y-81861142D01*
X156720197Y-81861144D01*
X156905354Y-81900500D01*
X156905355Y-81900500D01*
X157094644Y-81900500D01*
X157094646Y-81900500D01*
X157279803Y-81861144D01*
X157452730Y-81784151D01*
X157605871Y-81672888D01*
X157732533Y-81532216D01*
X157827179Y-81368284D01*
X157885674Y-81188256D01*
X157903321Y-81020344D01*
X157929904Y-80955734D01*
X157938941Y-80945648D01*
X158142773Y-80741816D01*
X158204095Y-80708334D01*
X158230453Y-80705500D01*
X159562279Y-80705500D01*
X159629318Y-80725185D01*
X159667868Y-80764486D01*
X159748164Y-80894895D01*
X159748169Y-80894902D01*
X159748172Y-80894905D01*
X159748173Y-80894907D01*
X159901741Y-81069395D01*
X159903682Y-81071600D01*
X159933196Y-81134930D01*
X159923786Y-81204163D01*
X159878440Y-81257318D01*
X159853932Y-81269705D01*
X159742669Y-81311203D01*
X159742664Y-81311206D01*
X159627455Y-81397452D01*
X159627452Y-81397455D01*
X159541206Y-81512664D01*
X159541202Y-81512671D01*
X159490908Y-81647517D01*
X159484501Y-81707116D01*
X159484501Y-81707123D01*
X159484500Y-81707135D01*
X159484500Y-83199546D01*
X159464815Y-83266585D01*
X159448181Y-83287227D01*
X157037228Y-85698181D01*
X156975905Y-85731666D01*
X156949547Y-85734500D01*
X155042781Y-85734500D01*
X154975742Y-85714815D01*
X154929987Y-85662011D01*
X154919492Y-85597243D01*
X154920500Y-85587873D01*
X154920499Y-84749499D01*
X154940183Y-84682461D01*
X154992987Y-84636706D01*
X155044499Y-84625500D01*
X155296252Y-84625500D01*
X155363291Y-84645185D01*
X155388400Y-84666526D01*
X155394126Y-84672885D01*
X155394130Y-84672889D01*
X155547265Y-84784148D01*
X155547270Y-84784151D01*
X155720192Y-84861142D01*
X155720197Y-84861144D01*
X155905354Y-84900500D01*
X155905355Y-84900500D01*
X156094644Y-84900500D01*
X156094646Y-84900500D01*
X156279803Y-84861144D01*
X156452730Y-84784151D01*
X156605871Y-84672888D01*
X156732533Y-84532216D01*
X156827179Y-84368284D01*
X156885674Y-84188256D01*
X156905460Y-84000000D01*
X156885674Y-83811744D01*
X156827179Y-83631716D01*
X156732533Y-83467784D01*
X156605871Y-83327112D01*
X156605870Y-83327111D01*
X156452734Y-83215851D01*
X156452729Y-83215848D01*
X156279807Y-83138857D01*
X156279802Y-83138855D01*
X156132194Y-83107481D01*
X156094646Y-83099500D01*
X155905354Y-83099500D01*
X155872897Y-83106398D01*
X155720197Y-83138855D01*
X155720192Y-83138857D01*
X155547270Y-83215848D01*
X155547265Y-83215851D01*
X155394130Y-83327110D01*
X155394126Y-83327114D01*
X155388400Y-83333474D01*
X155328913Y-83370121D01*
X155296252Y-83374500D01*
X155037514Y-83374500D01*
X154970475Y-83354815D01*
X154924720Y-83302011D01*
X154915951Y-83270050D01*
X154915876Y-83270068D01*
X154915375Y-83267951D01*
X154914224Y-83263753D01*
X154914091Y-83262518D01*
X154909761Y-83250908D01*
X154901340Y-83228332D01*
X154896357Y-83158642D01*
X154901340Y-83141669D01*
X154914091Y-83107483D01*
X154920500Y-83047873D01*
X154920499Y-82052128D01*
X154914091Y-81992517D01*
X154901340Y-81958332D01*
X154896357Y-81888642D01*
X154901340Y-81871669D01*
X154914091Y-81837483D01*
X154920500Y-81777873D01*
X154920499Y-80782128D01*
X154914091Y-80722517D01*
X154901340Y-80688332D01*
X154896357Y-80618642D01*
X154901340Y-80601669D01*
X154914091Y-80567483D01*
X154920500Y-80507873D01*
X154920499Y-79512128D01*
X154914091Y-79452517D01*
X154901340Y-79418332D01*
X154896357Y-79348642D01*
X154901340Y-79331669D01*
X154914091Y-79297483D01*
X154920500Y-79237873D01*
X154920499Y-78242128D01*
X154914091Y-78182517D01*
X154901340Y-78148332D01*
X154896357Y-78078642D01*
X154901340Y-78061669D01*
X154914091Y-78027483D01*
X154920500Y-77967873D01*
X154920499Y-76972128D01*
X154914091Y-76912517D01*
X154901340Y-76878332D01*
X154896357Y-76808642D01*
X154901340Y-76791669D01*
X154914091Y-76757483D01*
X154920500Y-76697873D01*
X154920499Y-75702128D01*
X154914091Y-75642517D01*
X154901340Y-75608332D01*
X154896357Y-75538642D01*
X154901340Y-75521669D01*
X154914091Y-75487483D01*
X154920500Y-75427873D01*
X154920499Y-74432128D01*
X154914091Y-74372517D01*
X154901340Y-74338332D01*
X154896357Y-74268642D01*
X154901340Y-74251669D01*
X154914091Y-74217483D01*
X154920500Y-74157873D01*
X154920499Y-73162128D01*
X154920498Y-73162126D01*
X154920498Y-73162114D01*
X154919492Y-73152757D01*
X154931896Y-73083997D01*
X154979506Y-73032859D01*
X155042781Y-73015500D01*
X156527257Y-73015500D01*
X156542877Y-73017224D01*
X156542904Y-73016939D01*
X156550660Y-73017671D01*
X156550667Y-73017673D01*
X156619814Y-73015500D01*
X156649350Y-73015500D01*
X156656228Y-73014630D01*
X156662041Y-73014172D01*
X156708627Y-73012709D01*
X156727869Y-73007117D01*
X156746912Y-73003174D01*
X156766792Y-73000664D01*
X156810122Y-72983507D01*
X156815646Y-72981617D01*
X156819396Y-72980527D01*
X156860390Y-72968618D01*
X156877629Y-72958422D01*
X156895103Y-72949862D01*
X156913729Y-72942487D01*
X156913728Y-72942487D01*
X156913732Y-72942486D01*
X156938923Y-72924182D01*
X157004729Y-72900702D01*
X157011810Y-72900500D01*
X157094644Y-72900500D01*
X157094646Y-72900500D01*
X157279803Y-72861144D01*
X157452730Y-72784151D01*
X157605871Y-72672888D01*
X157732533Y-72532216D01*
X157827179Y-72368284D01*
X157885674Y-72188256D01*
X157905460Y-72000000D01*
X157893106Y-71882459D01*
X157905676Y-71813732D01*
X157953408Y-71762708D01*
X158016427Y-71745500D01*
X159809548Y-71745500D01*
X159876587Y-71765185D01*
X159897224Y-71781814D01*
X160061040Y-71945630D01*
X160094523Y-72006952D01*
X160096678Y-72020348D01*
X160101180Y-72063181D01*
X160114326Y-72188256D01*
X160114327Y-72188259D01*
X160172818Y-72368277D01*
X160172821Y-72368284D01*
X160267467Y-72532216D01*
X160382129Y-72659561D01*
X160394129Y-72672888D01*
X160547265Y-72784148D01*
X160547270Y-72784151D01*
X160720192Y-72861142D01*
X160720197Y-72861144D01*
X160905354Y-72900500D01*
X160905355Y-72900500D01*
X161094644Y-72900500D01*
X161094646Y-72900500D01*
X161279803Y-72861144D01*
X161452730Y-72784151D01*
X161605871Y-72672888D01*
X161732533Y-72532216D01*
X161827179Y-72368284D01*
X161885674Y-72188256D01*
X161905460Y-72000000D01*
X161885674Y-71811744D01*
X161827179Y-71631716D01*
X161732533Y-71467784D01*
X161605871Y-71327112D01*
X161582320Y-71310001D01*
X161452734Y-71215851D01*
X161452729Y-71215848D01*
X161279807Y-71138857D01*
X161279802Y-71138855D01*
X161134001Y-71107865D01*
X161094646Y-71099500D01*
X161094645Y-71099500D01*
X161035453Y-71099500D01*
X160968414Y-71079815D01*
X160947772Y-71063181D01*
X160721772Y-70837181D01*
X160688287Y-70775858D01*
X160693271Y-70706166D01*
X160735143Y-70650233D01*
X160800607Y-70625816D01*
X160809453Y-70625500D01*
X161689548Y-70625500D01*
X161756587Y-70645185D01*
X161777229Y-70661819D01*
X164061038Y-72945628D01*
X164094523Y-73006951D01*
X164096678Y-73020347D01*
X164101722Y-73068331D01*
X164114326Y-73188256D01*
X164114327Y-73188259D01*
X164172818Y-73368277D01*
X164172821Y-73368284D01*
X164267467Y-73532216D01*
X164373312Y-73649768D01*
X164394129Y-73672888D01*
X164547265Y-73784148D01*
X164547270Y-73784151D01*
X164720192Y-73861142D01*
X164720197Y-73861144D01*
X164905354Y-73900500D01*
X164905355Y-73900500D01*
X165094644Y-73900500D01*
X165094646Y-73900500D01*
X165279803Y-73861144D01*
X165452730Y-73784151D01*
X165605871Y-73672888D01*
X165732533Y-73532216D01*
X165827179Y-73368284D01*
X165885674Y-73188256D01*
X165905460Y-73000000D01*
X165885674Y-72811744D01*
X165827179Y-72631716D01*
X165732533Y-72467784D01*
X165605871Y-72327112D01*
X165579954Y-72308282D01*
X165452734Y-72215851D01*
X165452729Y-72215848D01*
X165279807Y-72138857D01*
X165279802Y-72138855D01*
X165134001Y-72107865D01*
X165094646Y-72099500D01*
X165094645Y-72099500D01*
X165035452Y-72099500D01*
X164968413Y-72079815D01*
X164947771Y-72063181D01*
X162500803Y-69616212D01*
X162490980Y-69603950D01*
X162490759Y-69604134D01*
X162485786Y-69598123D01*
X162435364Y-69550773D01*
X162424919Y-69540328D01*
X162414475Y-69529883D01*
X162408986Y-69525625D01*
X162404561Y-69521847D01*
X162370582Y-69489938D01*
X162370580Y-69489936D01*
X162370577Y-69489935D01*
X162353029Y-69480288D01*
X162336763Y-69469604D01*
X162320933Y-69457325D01*
X162278168Y-69438818D01*
X162272922Y-69436248D01*
X162232093Y-69413803D01*
X162232092Y-69413802D01*
X162212693Y-69408822D01*
X162194281Y-69402518D01*
X162175898Y-69394562D01*
X162175892Y-69394560D01*
X162129874Y-69387272D01*
X162124152Y-69386087D01*
X162079021Y-69374500D01*
X162079019Y-69374500D01*
X162058984Y-69374500D01*
X162039586Y-69372973D01*
X162031333Y-69371666D01*
X162019805Y-69369840D01*
X162019804Y-69369840D01*
X161973416Y-69374225D01*
X161967578Y-69374500D01*
X157703748Y-69374500D01*
X157636709Y-69354815D01*
X157611600Y-69333474D01*
X157605873Y-69327114D01*
X157605869Y-69327110D01*
X157452734Y-69215851D01*
X157452729Y-69215848D01*
X157279807Y-69138857D01*
X157279802Y-69138855D01*
X157134001Y-69107865D01*
X157094646Y-69099500D01*
X156905354Y-69099500D01*
X156887114Y-69103377D01*
X156720197Y-69138855D01*
X156720192Y-69138857D01*
X156547270Y-69215848D01*
X156547265Y-69215851D01*
X156394129Y-69327111D01*
X156267466Y-69467785D01*
X156172821Y-69631715D01*
X156172818Y-69631722D01*
X156114327Y-69811740D01*
X156114326Y-69811744D01*
X156094540Y-70000000D01*
X156114326Y-70188256D01*
X156114327Y-70188259D01*
X156161090Y-70332182D01*
X156163085Y-70402023D01*
X156127004Y-70461856D01*
X156064303Y-70492684D01*
X156043159Y-70494500D01*
X155042781Y-70494500D01*
X154975742Y-70474815D01*
X154929987Y-70422011D01*
X154919492Y-70357243D01*
X154920500Y-70347873D01*
X154920499Y-69352128D01*
X154914091Y-69292517D01*
X154901340Y-69258332D01*
X154896357Y-69188642D01*
X154901340Y-69171669D01*
X154914091Y-69137483D01*
X154920500Y-69077873D01*
X154920499Y-68082128D01*
X154914091Y-68022517D01*
X154901073Y-67987616D01*
X154896090Y-67917926D01*
X154901075Y-67900949D01*
X154913597Y-67867375D01*
X154913598Y-67867372D01*
X154919999Y-67807844D01*
X154920000Y-67807827D01*
X154920000Y-67560000D01*
X152420000Y-67560000D01*
X152420000Y-67807844D01*
X152426401Y-67867372D01*
X152426403Y-67867379D01*
X152438925Y-67900952D01*
X152443909Y-67970643D01*
X152438925Y-67987617D01*
X152425909Y-68022514D01*
X152425908Y-68022516D01*
X152419501Y-68082116D01*
X152419501Y-68082123D01*
X152419500Y-68082135D01*
X152419500Y-69077870D01*
X152419501Y-69077876D01*
X152425908Y-69137481D01*
X152438659Y-69171669D01*
X152443642Y-69241361D01*
X152438659Y-69258331D01*
X152425908Y-69292518D01*
X152422189Y-69327114D01*
X152419501Y-69352123D01*
X152419500Y-69352135D01*
X152419500Y-70347870D01*
X152419501Y-70347876D01*
X152425908Y-70407481D01*
X152438659Y-70441669D01*
X152443642Y-70511361D01*
X152438659Y-70528331D01*
X152425908Y-70562518D01*
X152419501Y-70622116D01*
X152419500Y-70622135D01*
X152419500Y-71617870D01*
X152419501Y-71617876D01*
X152425908Y-71677481D01*
X152438659Y-71711669D01*
X152443642Y-71781361D01*
X152438659Y-71798331D01*
X152425908Y-71832518D01*
X152419501Y-71892116D01*
X152419500Y-71892135D01*
X152419500Y-72887870D01*
X152419501Y-72887876D01*
X152425908Y-72947481D01*
X152438659Y-72981669D01*
X152443642Y-73051361D01*
X152438659Y-73068331D01*
X152425908Y-73102518D01*
X152421059Y-73147627D01*
X152419501Y-73162123D01*
X152419500Y-73162135D01*
X152419500Y-74157870D01*
X152419501Y-74157876D01*
X152425908Y-74217481D01*
X152438659Y-74251669D01*
X152443642Y-74321361D01*
X152438659Y-74338331D01*
X152425908Y-74372518D01*
X152419501Y-74432116D01*
X152419501Y-74432123D01*
X152419500Y-74432135D01*
X152419500Y-75427870D01*
X152419501Y-75427876D01*
X152425908Y-75487481D01*
X152438659Y-75521669D01*
X152443642Y-75591361D01*
X152438659Y-75608331D01*
X152425908Y-75642518D01*
X152419501Y-75702116D01*
X152419501Y-75702123D01*
X152419500Y-75702135D01*
X152419500Y-76697870D01*
X152419501Y-76697876D01*
X152425908Y-76757481D01*
X152438659Y-76791669D01*
X152443642Y-76861361D01*
X152438659Y-76878331D01*
X152425908Y-76912518D01*
X152419501Y-76972116D01*
X152419501Y-76972123D01*
X152419500Y-76972135D01*
X152419500Y-77967870D01*
X152419501Y-77967876D01*
X152425908Y-78027481D01*
X152438659Y-78061669D01*
X152443642Y-78131361D01*
X152438659Y-78148331D01*
X152425908Y-78182518D01*
X152419501Y-78242116D01*
X152419501Y-78242123D01*
X152419500Y-78242135D01*
X152419500Y-79237870D01*
X152419501Y-79237876D01*
X152425908Y-79297481D01*
X152438659Y-79331669D01*
X152443642Y-79401361D01*
X152438659Y-79418331D01*
X152425908Y-79452518D01*
X152419501Y-79512116D01*
X152419501Y-79512123D01*
X152419500Y-79512135D01*
X152419500Y-80507870D01*
X152419501Y-80507876D01*
X152425908Y-80567481D01*
X152438659Y-80601669D01*
X152443642Y-80671361D01*
X152438659Y-80688331D01*
X152425908Y-80722518D01*
X152419501Y-80782116D01*
X152419501Y-80782123D01*
X152419500Y-80782135D01*
X152419500Y-81777870D01*
X152419501Y-81777876D01*
X152425908Y-81837481D01*
X152438659Y-81871669D01*
X152443642Y-81941361D01*
X152438659Y-81958331D01*
X152425908Y-81992518D01*
X152419501Y-82052116D01*
X152419501Y-82052123D01*
X152419500Y-82052135D01*
X152419500Y-83047870D01*
X152419501Y-83047876D01*
X152425908Y-83107481D01*
X152438659Y-83141669D01*
X152443642Y-83211361D01*
X152438659Y-83228331D01*
X152425908Y-83262518D01*
X152419501Y-83322116D01*
X152419501Y-83322123D01*
X152419500Y-83322135D01*
X152419500Y-84251093D01*
X152399815Y-84318132D01*
X152363716Y-84352562D01*
X152364508Y-84353652D01*
X152359253Y-84357469D01*
X152307644Y-84403936D01*
X152305182Y-84406039D01*
X152288099Y-84419875D01*
X152288082Y-84419890D01*
X152272537Y-84435435D01*
X152270185Y-84437666D01*
X152218586Y-84484126D01*
X152210341Y-84495474D01*
X152197708Y-84510263D01*
X150420263Y-86287708D01*
X150405474Y-86300341D01*
X150394126Y-86308586D01*
X150347666Y-86360185D01*
X150345435Y-86362537D01*
X150329890Y-86378082D01*
X150329875Y-86378099D01*
X150316039Y-86395182D01*
X150313936Y-86397644D01*
X150267469Y-86449253D01*
X150267466Y-86449257D01*
X150260458Y-86461395D01*
X150249444Y-86477420D01*
X150240626Y-86488309D01*
X150240616Y-86488325D01*
X150209082Y-86550212D01*
X150207533Y-86553064D01*
X150172821Y-86613185D01*
X150168487Y-86626525D01*
X150161045Y-86644492D01*
X150154680Y-86656984D01*
X150136706Y-86724056D01*
X150135785Y-86727164D01*
X150114326Y-86793214D01*
X150114325Y-86793217D01*
X150112860Y-86807158D01*
X150109315Y-86826284D01*
X150105686Y-86839824D01*
X150102051Y-86909182D01*
X150101797Y-86912413D01*
X150099500Y-86934282D01*
X150099500Y-86956269D01*
X150099415Y-86959514D01*
X150095781Y-87028859D01*
X150097973Y-87042697D01*
X150099500Y-87062098D01*
X150099500Y-111575638D01*
X150079815Y-111642677D01*
X150063181Y-111663319D01*
X148420263Y-113306236D01*
X148405474Y-113318869D01*
X148394126Y-113327114D01*
X148347666Y-113378713D01*
X148345435Y-113381065D01*
X148329890Y-113396610D01*
X148329875Y-113396627D01*
X148316039Y-113413710D01*
X148313936Y-113416172D01*
X148267469Y-113467781D01*
X148267466Y-113467785D01*
X148260458Y-113479923D01*
X148249444Y-113495948D01*
X148240626Y-113506837D01*
X148240616Y-113506853D01*
X148209082Y-113568740D01*
X148207533Y-113571592D01*
X148172821Y-113631713D01*
X148168487Y-113645053D01*
X148161045Y-113663020D01*
X148154680Y-113675512D01*
X148136706Y-113742584D01*
X148135785Y-113745692D01*
X148114326Y-113811742D01*
X148114325Y-113811745D01*
X148112860Y-113825686D01*
X148109315Y-113844812D01*
X148105686Y-113858352D01*
X148102051Y-113927710D01*
X148101797Y-113930941D01*
X148099500Y-113952810D01*
X148099500Y-113974797D01*
X148099415Y-113978042D01*
X148095781Y-114047387D01*
X148097973Y-114061225D01*
X148099500Y-114080626D01*
X148099500Y-115487563D01*
X148079815Y-115554602D01*
X148027011Y-115600357D01*
X148007126Y-115607462D01*
X147647985Y-115702191D01*
X147647983Y-115702192D01*
X147251466Y-115847683D01*
X146870326Y-116029661D01*
X146870320Y-116029664D01*
X146507895Y-116246532D01*
X146507889Y-116246536D01*
X146167363Y-116496391D01*
X145851732Y-116777035D01*
X145563750Y-117086018D01*
X145305993Y-117420578D01*
X145305988Y-117420585D01*
X145080677Y-117777838D01*
X145080676Y-117777840D01*
X144889819Y-118154597D01*
X144889814Y-118154607D01*
X144735065Y-118547612D01*
X144629568Y-118912653D01*
X144617804Y-118953359D01*
X144617803Y-118953363D01*
X144617802Y-118953363D01*
X144539052Y-119368300D01*
X144539050Y-119368317D01*
X144512487Y-119650739D01*
X144499500Y-119788819D01*
X144499500Y-166105533D01*
X137600500Y-166105533D01*
X137600500Y-120075501D01*
X137603164Y-120049937D01*
X137603254Y-120049507D01*
X137603898Y-120046453D01*
X137600590Y-119985417D01*
X137600500Y-119982069D01*
X137600500Y-119960643D01*
X137600500Y-119960639D01*
X137598680Y-119946820D01*
X137598244Y-119942131D01*
X137595343Y-119888570D01*
X137591664Y-119877317D01*
X137586589Y-119854975D01*
X137585044Y-119843238D01*
X137564524Y-119793699D01*
X137562874Y-119789238D01*
X137546218Y-119738282D01*
X137546218Y-119738281D01*
X137539748Y-119728357D01*
X137529066Y-119708095D01*
X137524536Y-119697159D01*
X137491890Y-119654614D01*
X137489147Y-119650739D01*
X137481548Y-119639084D01*
X137467618Y-119622832D01*
X137465504Y-119620226D01*
X137428284Y-119571720D01*
X137428282Y-119571719D01*
X137428282Y-119571718D01*
X137425452Y-119569547D01*
X137406797Y-119551874D01*
X137249462Y-119368317D01*
X132954324Y-114357321D01*
X131630352Y-112812687D01*
X131601669Y-112748976D01*
X131600500Y-112731989D01*
X131600500Y-90667870D01*
X134919500Y-90667870D01*
X134919501Y-90667876D01*
X134925908Y-90727483D01*
X134976202Y-90862328D01*
X134976206Y-90862335D01*
X135062452Y-90977544D01*
X135062455Y-90977547D01*
X135177664Y-91063793D01*
X135177671Y-91063797D01*
X135312517Y-91114091D01*
X135312516Y-91114091D01*
X135319444Y-91114835D01*
X135372127Y-91120500D01*
X136967872Y-91120499D01*
X137027483Y-91114091D01*
X137162331Y-91063796D01*
X137277546Y-90977546D01*
X137363796Y-90862331D01*
X137414091Y-90727483D01*
X137420500Y-90667873D01*
X137420499Y-89672128D01*
X137414091Y-89612517D01*
X137401340Y-89578332D01*
X137396357Y-89508642D01*
X137401340Y-89491669D01*
X137414091Y-89457483D01*
X137420500Y-89397873D01*
X137420499Y-88402128D01*
X137414091Y-88342517D01*
X137401340Y-88308332D01*
X137396357Y-88238642D01*
X137401340Y-88221669D01*
X137414091Y-88187483D01*
X137420500Y-88127873D01*
X137420499Y-87132128D01*
X137420498Y-87132116D01*
X137420498Y-87132114D01*
X137419492Y-87122757D01*
X137431896Y-87053997D01*
X137479506Y-87002859D01*
X137542781Y-86985500D01*
X138557257Y-86985500D01*
X138572877Y-86987224D01*
X138572904Y-86986939D01*
X138580660Y-86987671D01*
X138580667Y-86987673D01*
X138649814Y-86985500D01*
X138679350Y-86985500D01*
X138686228Y-86984630D01*
X138692041Y-86984172D01*
X138738627Y-86982709D01*
X138757869Y-86977117D01*
X138776912Y-86973174D01*
X138796792Y-86970664D01*
X138840122Y-86953507D01*
X138845646Y-86951617D01*
X138849396Y-86950527D01*
X138890390Y-86938618D01*
X138907629Y-86928422D01*
X138925103Y-86919862D01*
X138950988Y-86909614D01*
X138951994Y-86912155D01*
X138997373Y-86900500D01*
X139094644Y-86900500D01*
X139094646Y-86900500D01*
X139279803Y-86861144D01*
X139452730Y-86784151D01*
X139605871Y-86672888D01*
X139732533Y-86532216D01*
X139827179Y-86368284D01*
X139885674Y-86188256D01*
X139905460Y-86000000D01*
X139885674Y-85811744D01*
X139827179Y-85631716D01*
X139732533Y-85467784D01*
X139605871Y-85327112D01*
X139605870Y-85327111D01*
X139452734Y-85215851D01*
X139452729Y-85215848D01*
X139279807Y-85138857D01*
X139279802Y-85138855D01*
X139134001Y-85107865D01*
X139094646Y-85099500D01*
X138905354Y-85099500D01*
X138872897Y-85106398D01*
X138720197Y-85138855D01*
X138720192Y-85138857D01*
X138547270Y-85215848D01*
X138547265Y-85215851D01*
X138394129Y-85327111D01*
X138267466Y-85467785D01*
X138172821Y-85631715D01*
X138172818Y-85631721D01*
X138167264Y-85648818D01*
X138127827Y-85706493D01*
X138063468Y-85733692D01*
X138049333Y-85734500D01*
X137542277Y-85734500D01*
X137475238Y-85714815D01*
X137429483Y-85662011D01*
X137418988Y-85597240D01*
X137419999Y-85587834D01*
X137420000Y-85587827D01*
X137420000Y-85340000D01*
X134920000Y-85340000D01*
X134920000Y-85587844D01*
X134926401Y-85647372D01*
X134926403Y-85647379D01*
X134938925Y-85680952D01*
X134943909Y-85750643D01*
X134938925Y-85767617D01*
X134925909Y-85802514D01*
X134925908Y-85802516D01*
X134919501Y-85862116D01*
X134919500Y-85862135D01*
X134919500Y-86857870D01*
X134919501Y-86857876D01*
X134925908Y-86917481D01*
X134938659Y-86951669D01*
X134943642Y-87021361D01*
X134938659Y-87038331D01*
X134925908Y-87072518D01*
X134919501Y-87132116D01*
X134919500Y-87132135D01*
X134919500Y-88127870D01*
X134919501Y-88127876D01*
X134925908Y-88187481D01*
X134938659Y-88221669D01*
X134943642Y-88291361D01*
X134938659Y-88308331D01*
X134925908Y-88342518D01*
X134919589Y-88401295D01*
X134919501Y-88402123D01*
X134919500Y-88402135D01*
X134919500Y-89397870D01*
X134919501Y-89397876D01*
X134925908Y-89457481D01*
X134938659Y-89491669D01*
X134943642Y-89561361D01*
X134938659Y-89578331D01*
X134925908Y-89612518D01*
X134923536Y-89634586D01*
X134919501Y-89672123D01*
X134919500Y-89672135D01*
X134919500Y-90667870D01*
X131600500Y-90667870D01*
X131600500Y-76344363D01*
X132304500Y-76344363D01*
X132319953Y-76461753D01*
X132319956Y-76461762D01*
X132356753Y-76550599D01*
X132380464Y-76607841D01*
X132476718Y-76733282D01*
X132602159Y-76829536D01*
X132748238Y-76890044D01*
X132865639Y-76905500D01*
X133144360Y-76905499D01*
X133144363Y-76905499D01*
X133261753Y-76890046D01*
X133261757Y-76890044D01*
X133261762Y-76890044D01*
X133407841Y-76829536D01*
X133533282Y-76733282D01*
X133554823Y-76705208D01*
X133585386Y-76678123D01*
X133585254Y-76677953D01*
X133587856Y-76675933D01*
X133590084Y-76673959D01*
X133591420Y-76673170D01*
X133605589Y-76658999D01*
X133620379Y-76646368D01*
X133636587Y-76634594D01*
X133666299Y-76598676D01*
X133670212Y-76594376D01*
X134713968Y-75550620D01*
X134775289Y-75517137D01*
X134844981Y-75522121D01*
X134900914Y-75563993D01*
X134925331Y-75629457D01*
X134924936Y-75651557D01*
X134919500Y-75702127D01*
X134919500Y-75702128D01*
X134919500Y-75702132D01*
X134919500Y-76697870D01*
X134919501Y-76697876D01*
X134925908Y-76757481D01*
X134938659Y-76791669D01*
X134943642Y-76861361D01*
X134938659Y-76878331D01*
X134925908Y-76912518D01*
X134919501Y-76972116D01*
X134919501Y-76972123D01*
X134919500Y-76972135D01*
X134919500Y-77967870D01*
X134919501Y-77967876D01*
X134925908Y-78027481D01*
X134938659Y-78061669D01*
X134943642Y-78131361D01*
X134938659Y-78148331D01*
X134925908Y-78182518D01*
X134919501Y-78242116D01*
X134919501Y-78242123D01*
X134919500Y-78242135D01*
X134919500Y-79237870D01*
X134919501Y-79237876D01*
X134925908Y-79297481D01*
X134938659Y-79331669D01*
X134943642Y-79401361D01*
X134938659Y-79418331D01*
X134925908Y-79452518D01*
X134919501Y-79512116D01*
X134919501Y-79512123D01*
X134919500Y-79512135D01*
X134919500Y-80507870D01*
X134919501Y-80507876D01*
X134925908Y-80567481D01*
X134938659Y-80601669D01*
X134943642Y-80671361D01*
X134938659Y-80688331D01*
X134925908Y-80722518D01*
X134919501Y-80782116D01*
X134919501Y-80782123D01*
X134919500Y-80782135D01*
X134919500Y-81777870D01*
X134919501Y-81777876D01*
X134925908Y-81837481D01*
X134938659Y-81871669D01*
X134943642Y-81941361D01*
X134938659Y-81958331D01*
X134925908Y-81992518D01*
X134919501Y-82052116D01*
X134919501Y-82052123D01*
X134919500Y-82052135D01*
X134919500Y-83047870D01*
X134919501Y-83047876D01*
X134925908Y-83107481D01*
X134938659Y-83141669D01*
X134943642Y-83211361D01*
X134938659Y-83228331D01*
X134925908Y-83262518D01*
X134919501Y-83322116D01*
X134919501Y-83322123D01*
X134919500Y-83322135D01*
X134919500Y-84317870D01*
X134919501Y-84317876D01*
X134925908Y-84377483D01*
X134938925Y-84412381D01*
X134943909Y-84482072D01*
X134938925Y-84499047D01*
X134926403Y-84532619D01*
X134926401Y-84532627D01*
X134920000Y-84592155D01*
X134920000Y-84840000D01*
X137420000Y-84840000D01*
X137420000Y-84592172D01*
X137419999Y-84592155D01*
X137413597Y-84532622D01*
X137413597Y-84532620D01*
X137401075Y-84499048D01*
X137396089Y-84429356D01*
X137401071Y-84412390D01*
X137414091Y-84377483D01*
X137420500Y-84317873D01*
X137420499Y-83322128D01*
X137414091Y-83262517D01*
X137401340Y-83228332D01*
X137396357Y-83158642D01*
X137401340Y-83141669D01*
X137414091Y-83107483D01*
X137420500Y-83047873D01*
X137420499Y-82052128D01*
X137414091Y-81992517D01*
X137401340Y-81958332D01*
X137396357Y-81888642D01*
X137401340Y-81871669D01*
X137414091Y-81837483D01*
X137420500Y-81777873D01*
X137420499Y-81694449D01*
X137440183Y-81627413D01*
X137492986Y-81581657D01*
X137562145Y-81571713D01*
X137625701Y-81600737D01*
X137632180Y-81606770D01*
X147140781Y-91115371D01*
X147174266Y-91176694D01*
X147177100Y-91203052D01*
X147177100Y-94746600D01*
X147157415Y-94813639D01*
X147104611Y-94859394D01*
X147053102Y-94870600D01*
X146992730Y-94870600D01*
X146992723Y-94870601D01*
X146933116Y-94877008D01*
X146798271Y-94927302D01*
X146798264Y-94927306D01*
X146683055Y-95013552D01*
X146683052Y-95013555D01*
X146596806Y-95128764D01*
X146596802Y-95128771D01*
X146546508Y-95263617D01*
X146544469Y-95282587D01*
X146540101Y-95323223D01*
X146540100Y-95323235D01*
X146540100Y-96180970D01*
X146540101Y-96180976D01*
X146546508Y-96240583D01*
X146596802Y-96375428D01*
X146596806Y-96375435D01*
X146683052Y-96490644D01*
X146683055Y-96490647D01*
X146798264Y-96576893D01*
X146798271Y-96576897D01*
X146839762Y-96592372D01*
X146933117Y-96627191D01*
X146992727Y-96633600D01*
X147053100Y-96633599D01*
X147120138Y-96653283D01*
X147165894Y-96706086D01*
X147177100Y-96757599D01*
X147177100Y-99242400D01*
X147157415Y-99309439D01*
X147104611Y-99355194D01*
X147053102Y-99366400D01*
X146992730Y-99366400D01*
X146992723Y-99366401D01*
X146933116Y-99372808D01*
X146798271Y-99423102D01*
X146798264Y-99423106D01*
X146683055Y-99509352D01*
X146683052Y-99509355D01*
X146596806Y-99624564D01*
X146596802Y-99624571D01*
X146546508Y-99759417D01*
X146540101Y-99819016D01*
X146540101Y-99819023D01*
X146540100Y-99819035D01*
X146540100Y-100676770D01*
X146540101Y-100676776D01*
X146546508Y-100736383D01*
X146596802Y-100871228D01*
X146596806Y-100871235D01*
X146683052Y-100986444D01*
X146683055Y-100986447D01*
X146798264Y-101072693D01*
X146798271Y-101072697D01*
X146933117Y-101122991D01*
X146933116Y-101122991D01*
X146940044Y-101123735D01*
X146992727Y-101129400D01*
X148612472Y-101129399D01*
X148672083Y-101122991D01*
X148806931Y-101072696D01*
X148922146Y-100986446D01*
X149008396Y-100871231D01*
X149058691Y-100736383D01*
X149065100Y-100676773D01*
X149065099Y-99819028D01*
X149058691Y-99759417D01*
X149008484Y-99624806D01*
X149008397Y-99624571D01*
X149008393Y-99624564D01*
X148922147Y-99509355D01*
X148922144Y-99509352D01*
X148806935Y-99423106D01*
X148806928Y-99423102D01*
X148672082Y-99372808D01*
X148672083Y-99372808D01*
X148612483Y-99366401D01*
X148612481Y-99366400D01*
X148612473Y-99366400D01*
X148612465Y-99366400D01*
X148552100Y-99366400D01*
X148485061Y-99346715D01*
X148439306Y-99293911D01*
X148428100Y-99242400D01*
X148428100Y-96757599D01*
X148447785Y-96690560D01*
X148500589Y-96644805D01*
X148552100Y-96633599D01*
X148612471Y-96633599D01*
X148612472Y-96633599D01*
X148672083Y-96627191D01*
X148806931Y-96576896D01*
X148922146Y-96490646D01*
X149008396Y-96375431D01*
X149058691Y-96240583D01*
X149065100Y-96180973D01*
X149065099Y-95323228D01*
X149058691Y-95263617D01*
X149008484Y-95129006D01*
X149008397Y-95128771D01*
X149008393Y-95128764D01*
X148922147Y-95013555D01*
X148922144Y-95013552D01*
X148806935Y-94927306D01*
X148806928Y-94927302D01*
X148672082Y-94877008D01*
X148672083Y-94877008D01*
X148612483Y-94870601D01*
X148612481Y-94870600D01*
X148612473Y-94870600D01*
X148612465Y-94870600D01*
X148552100Y-94870600D01*
X148485061Y-94850915D01*
X148439306Y-94798111D01*
X148428100Y-94746600D01*
X148428100Y-90975342D01*
X148429824Y-90959722D01*
X148429539Y-90959695D01*
X148430273Y-90951933D01*
X148428100Y-90882772D01*
X148428100Y-90853256D01*
X148428100Y-90853250D01*
X148427231Y-90846379D01*
X148426773Y-90840552D01*
X148425310Y-90793973D01*
X148419719Y-90774730D01*
X148415773Y-90755678D01*
X148413264Y-90735808D01*
X148396104Y-90692467D01*
X148394224Y-90686979D01*
X148381218Y-90642210D01*
X148371019Y-90624964D01*
X148362458Y-90607488D01*
X148355087Y-90588870D01*
X148355086Y-90588868D01*
X148327690Y-90551160D01*
X148324492Y-90546291D01*
X148320773Y-90540003D01*
X148300771Y-90506180D01*
X148300769Y-90506178D01*
X148300766Y-90506174D01*
X148286605Y-90492013D01*
X148273970Y-90477220D01*
X148262193Y-90461012D01*
X148226293Y-90431313D01*
X148221981Y-90427390D01*
X137456818Y-79662227D01*
X137423333Y-79600904D01*
X137420499Y-79574546D01*
X137420499Y-79512129D01*
X137420498Y-79512123D01*
X137420497Y-79512116D01*
X137414091Y-79452517D01*
X137401340Y-79418332D01*
X137396357Y-79348642D01*
X137401340Y-79331669D01*
X137414091Y-79297483D01*
X137420500Y-79237873D01*
X137420499Y-78242128D01*
X137414091Y-78182517D01*
X137401340Y-78148332D01*
X137396357Y-78078642D01*
X137401340Y-78061669D01*
X137414091Y-78027483D01*
X137420500Y-77967873D01*
X137420499Y-76972128D01*
X137414091Y-76912517D01*
X137401340Y-76878332D01*
X137396357Y-76808642D01*
X137401340Y-76791669D01*
X137414091Y-76757483D01*
X137414358Y-76755000D01*
X141070000Y-76755000D01*
X141070000Y-77002844D01*
X141076401Y-77062372D01*
X141076403Y-77062379D01*
X141126645Y-77197086D01*
X141126649Y-77197093D01*
X141212809Y-77312187D01*
X141212812Y-77312190D01*
X141327906Y-77398350D01*
X141327913Y-77398354D01*
X141462620Y-77448596D01*
X141462627Y-77448598D01*
X141522155Y-77454999D01*
X141522172Y-77455000D01*
X141770000Y-77455000D01*
X141770000Y-76755000D01*
X142270000Y-76755000D01*
X142270000Y-77455000D01*
X142517828Y-77455000D01*
X142517844Y-77454999D01*
X142577372Y-77448598D01*
X142577376Y-77448597D01*
X142676666Y-77411564D01*
X142746358Y-77406580D01*
X142763334Y-77411564D01*
X142862623Y-77448597D01*
X142862627Y-77448598D01*
X142922155Y-77454999D01*
X142922172Y-77455000D01*
X143170000Y-77455000D01*
X143170000Y-76755000D01*
X143670000Y-76755000D01*
X143670000Y-77455000D01*
X143917828Y-77455000D01*
X143917844Y-77454999D01*
X143977372Y-77448598D01*
X143977376Y-77448597D01*
X144076666Y-77411564D01*
X144146358Y-77406580D01*
X144163334Y-77411564D01*
X144262623Y-77448597D01*
X144262627Y-77448598D01*
X144322155Y-77454999D01*
X144322172Y-77455000D01*
X144570000Y-77455000D01*
X144570000Y-76755000D01*
X145070000Y-76755000D01*
X145070000Y-77455000D01*
X145317828Y-77455000D01*
X145317844Y-77454999D01*
X145377372Y-77448598D01*
X145377379Y-77448596D01*
X145512086Y-77398354D01*
X145512093Y-77398350D01*
X145627187Y-77312190D01*
X145627190Y-77312187D01*
X145713350Y-77197093D01*
X145713354Y-77197086D01*
X145763596Y-77062379D01*
X145763598Y-77062372D01*
X145769999Y-77002844D01*
X145770000Y-77002827D01*
X145770000Y-76755000D01*
X145070000Y-76755000D01*
X144570000Y-76755000D01*
X143670000Y-76755000D01*
X143170000Y-76755000D01*
X142270000Y-76755000D01*
X141770000Y-76755000D01*
X141070000Y-76755000D01*
X137414358Y-76755000D01*
X137420500Y-76697873D01*
X137420499Y-75702128D01*
X137414091Y-75642517D01*
X137401340Y-75608332D01*
X137396357Y-75538642D01*
X137401340Y-75521669D01*
X137414091Y-75487483D01*
X137420500Y-75427873D01*
X137420500Y-75355000D01*
X141070000Y-75355000D01*
X141070000Y-75602844D01*
X141076401Y-75662372D01*
X141076403Y-75662383D01*
X141113434Y-75761668D01*
X141118418Y-75831360D01*
X141113434Y-75848332D01*
X141076403Y-75947616D01*
X141076401Y-75947627D01*
X141070000Y-76007155D01*
X141070000Y-76255000D01*
X141770000Y-76255000D01*
X141770000Y-75355000D01*
X142270000Y-75355000D01*
X142270000Y-76255000D01*
X143170000Y-76255000D01*
X143170000Y-75355000D01*
X143670000Y-75355000D01*
X143670000Y-76255000D01*
X144570000Y-76255000D01*
X144570000Y-75355000D01*
X145070000Y-75355000D01*
X145070000Y-76255000D01*
X145770000Y-76255000D01*
X145770000Y-76007172D01*
X145769999Y-76007155D01*
X145763598Y-75947627D01*
X145763597Y-75947623D01*
X145726564Y-75848334D01*
X145721580Y-75778642D01*
X145726564Y-75761666D01*
X145763597Y-75662376D01*
X145763598Y-75662372D01*
X145769999Y-75602844D01*
X145770000Y-75602827D01*
X145770000Y-75355000D01*
X145070000Y-75355000D01*
X144570000Y-75355000D01*
X143670000Y-75355000D01*
X143170000Y-75355000D01*
X142270000Y-75355000D01*
X141770000Y-75355000D01*
X141070000Y-75355000D01*
X137420500Y-75355000D01*
X137420499Y-74432128D01*
X137414091Y-74372517D01*
X137401340Y-74338332D01*
X137396357Y-74268642D01*
X137401340Y-74251669D01*
X137414091Y-74217483D01*
X137420500Y-74157873D01*
X137420500Y-73955000D01*
X141065000Y-73955000D01*
X141065000Y-74202844D01*
X141071401Y-74262372D01*
X141071403Y-74262379D01*
X141110935Y-74368369D01*
X141115919Y-74438060D01*
X141110935Y-74455035D01*
X141076403Y-74547619D01*
X141076401Y-74547627D01*
X141070000Y-74607155D01*
X141070000Y-74855000D01*
X141770000Y-74855000D01*
X141770000Y-74668962D01*
X141767834Y-74664996D01*
X141765000Y-74638638D01*
X141765000Y-73955000D01*
X142265000Y-73955000D01*
X142265000Y-74141037D01*
X142267166Y-74145004D01*
X142270000Y-74171362D01*
X142270000Y-74855000D01*
X143170000Y-74855000D01*
X143170000Y-73955000D01*
X143670000Y-73955000D01*
X143670000Y-74855000D01*
X144570000Y-74855000D01*
X144570000Y-73955000D01*
X145070000Y-73955000D01*
X145070000Y-74855000D01*
X145770000Y-74855000D01*
X145770000Y-74607172D01*
X145769999Y-74607155D01*
X145763598Y-74547627D01*
X145763597Y-74547623D01*
X145726564Y-74448334D01*
X145721580Y-74378642D01*
X145726564Y-74361666D01*
X145763597Y-74262376D01*
X145763598Y-74262372D01*
X145769999Y-74202844D01*
X145770000Y-74202827D01*
X145770000Y-73955000D01*
X145070000Y-73955000D01*
X144570000Y-73955000D01*
X143670000Y-73955000D01*
X143170000Y-73955000D01*
X142265000Y-73955000D01*
X141765000Y-73955000D01*
X141065000Y-73955000D01*
X137420500Y-73955000D01*
X137420499Y-73455000D01*
X141065000Y-73455000D01*
X141765000Y-73455000D01*
X141765000Y-72755000D01*
X142265000Y-72755000D01*
X142265000Y-73455000D01*
X143170000Y-73455000D01*
X143170000Y-72755000D01*
X143670000Y-72755000D01*
X143670000Y-73455000D01*
X144570000Y-73455000D01*
X144570000Y-72755000D01*
X145070000Y-72755000D01*
X145070000Y-73455000D01*
X145770000Y-73455000D01*
X145770000Y-73207172D01*
X145769999Y-73207155D01*
X145763598Y-73147627D01*
X145763596Y-73147620D01*
X145713354Y-73012913D01*
X145713350Y-73012906D01*
X145627190Y-72897812D01*
X145627187Y-72897809D01*
X145512093Y-72811649D01*
X145512086Y-72811645D01*
X145377379Y-72761403D01*
X145377372Y-72761401D01*
X145317844Y-72755000D01*
X145070000Y-72755000D01*
X144570000Y-72755000D01*
X144322155Y-72755000D01*
X144262627Y-72761401D01*
X144262616Y-72761403D01*
X144163332Y-72798434D01*
X144093640Y-72803418D01*
X144076668Y-72798434D01*
X143977383Y-72761403D01*
X143977372Y-72761401D01*
X143917844Y-72755000D01*
X143670000Y-72755000D01*
X143170000Y-72755000D01*
X142922155Y-72755000D01*
X142862627Y-72761401D01*
X142862619Y-72761403D01*
X142760833Y-72799367D01*
X142691141Y-72804351D01*
X142674167Y-72799367D01*
X142572380Y-72761403D01*
X142572372Y-72761401D01*
X142512844Y-72755000D01*
X142265000Y-72755000D01*
X141765000Y-72755000D01*
X141517155Y-72755000D01*
X141457627Y-72761401D01*
X141457620Y-72761403D01*
X141322913Y-72811645D01*
X141322906Y-72811649D01*
X141207812Y-72897809D01*
X141207809Y-72897812D01*
X141121649Y-73012906D01*
X141121645Y-73012913D01*
X141071403Y-73147620D01*
X141071401Y-73147627D01*
X141065000Y-73207155D01*
X141065000Y-73455000D01*
X137420499Y-73455000D01*
X137420499Y-73162128D01*
X137414091Y-73102517D01*
X137401340Y-73068332D01*
X137396357Y-72998642D01*
X137401340Y-72981669D01*
X137414091Y-72947483D01*
X137420500Y-72887873D01*
X137420499Y-71892128D01*
X137420498Y-71892116D01*
X137420498Y-71892114D01*
X137419492Y-71882757D01*
X137431896Y-71813997D01*
X137479506Y-71762859D01*
X137542781Y-71745500D01*
X138453781Y-71745500D01*
X138520820Y-71765185D01*
X138526666Y-71769182D01*
X138547265Y-71784148D01*
X138547270Y-71784151D01*
X138720192Y-71861142D01*
X138720197Y-71861144D01*
X138905354Y-71900500D01*
X138905355Y-71900500D01*
X139094644Y-71900500D01*
X139094646Y-71900500D01*
X139279803Y-71861144D01*
X139452730Y-71784151D01*
X139605871Y-71672888D01*
X139732533Y-71532216D01*
X139827179Y-71368284D01*
X139885674Y-71188256D01*
X139905460Y-71000000D01*
X139885674Y-70811744D01*
X139827179Y-70631716D01*
X139732533Y-70467784D01*
X139605871Y-70327112D01*
X139550334Y-70286762D01*
X139452734Y-70215851D01*
X139452729Y-70215848D01*
X139279807Y-70138857D01*
X139279802Y-70138855D01*
X139134001Y-70107865D01*
X139094646Y-70099500D01*
X138905354Y-70099500D01*
X138872897Y-70106398D01*
X138720197Y-70138855D01*
X138720192Y-70138857D01*
X138547270Y-70215848D01*
X138547265Y-70215851D01*
X138394132Y-70327109D01*
X138394129Y-70327111D01*
X138394129Y-70327112D01*
X138298932Y-70432839D01*
X138280353Y-70453473D01*
X138220866Y-70490121D01*
X138188203Y-70494500D01*
X137542781Y-70494500D01*
X137475742Y-70474815D01*
X137429987Y-70422011D01*
X137419492Y-70357243D01*
X137420500Y-70347873D01*
X137420499Y-69352128D01*
X137420498Y-69352126D01*
X137420498Y-69352114D01*
X137419492Y-69342757D01*
X137431896Y-69273997D01*
X137479506Y-69222859D01*
X137542781Y-69205500D01*
X139337257Y-69205500D01*
X139352877Y-69207224D01*
X139352904Y-69206939D01*
X139360660Y-69207671D01*
X139360667Y-69207673D01*
X139429814Y-69205500D01*
X139459350Y-69205500D01*
X139466228Y-69204630D01*
X139472041Y-69204172D01*
X139518627Y-69202709D01*
X139537869Y-69197117D01*
X139556912Y-69193174D01*
X139576792Y-69190664D01*
X139620122Y-69173507D01*
X139625646Y-69171617D01*
X139629396Y-69170527D01*
X139670390Y-69158618D01*
X139687629Y-69148422D01*
X139705103Y-69139862D01*
X139723727Y-69132488D01*
X139723727Y-69132487D01*
X139723732Y-69132486D01*
X139761449Y-69105082D01*
X139766305Y-69101892D01*
X139806420Y-69078170D01*
X139820589Y-69063999D01*
X139835379Y-69051368D01*
X139851587Y-69039594D01*
X139881294Y-69003681D01*
X139885219Y-68999370D01*
X139947773Y-68936817D01*
X140009097Y-68903333D01*
X140035453Y-68900500D01*
X140094644Y-68900500D01*
X140094646Y-68900500D01*
X140279803Y-68861144D01*
X140452730Y-68784151D01*
X140605871Y-68672888D01*
X140732533Y-68532216D01*
X140827179Y-68368284D01*
X140885674Y-68188256D01*
X140905460Y-68000000D01*
X140885674Y-67811744D01*
X140827179Y-67631716D01*
X140732533Y-67467784D01*
X140605871Y-67327112D01*
X140605870Y-67327111D01*
X140452734Y-67215851D01*
X140452729Y-67215848D01*
X140279807Y-67138857D01*
X140279802Y-67138855D01*
X140134001Y-67107865D01*
X140094646Y-67099500D01*
X139905354Y-67099500D01*
X139872897Y-67106398D01*
X139720197Y-67138855D01*
X139720192Y-67138857D01*
X139547270Y-67215848D01*
X139547265Y-67215851D01*
X139394129Y-67327111D01*
X139267466Y-67467785D01*
X139172821Y-67631715D01*
X139172818Y-67631722D01*
X139115596Y-67807834D01*
X139114326Y-67811744D01*
X139110992Y-67843464D01*
X139084408Y-67908076D01*
X139027111Y-67948061D01*
X138987672Y-67954500D01*
X137542277Y-67954500D01*
X137475238Y-67934815D01*
X137429483Y-67882011D01*
X137418988Y-67817240D01*
X137419999Y-67807834D01*
X137420000Y-67807827D01*
X137420000Y-67560000D01*
X134920000Y-67560000D01*
X134920000Y-67807844D01*
X134926401Y-67867372D01*
X134926403Y-67867379D01*
X134938925Y-67900952D01*
X134943909Y-67970643D01*
X134938925Y-67987617D01*
X134925909Y-68022514D01*
X134925908Y-68022516D01*
X134919501Y-68082116D01*
X134919501Y-68082123D01*
X134919500Y-68082135D01*
X134919500Y-68504926D01*
X134899815Y-68571965D01*
X134883181Y-68592607D01*
X134137608Y-69338181D01*
X134076285Y-69371666D01*
X134049927Y-69374500D01*
X133828999Y-69374500D01*
X133761960Y-69354815D01*
X133716205Y-69302011D01*
X133704999Y-69250500D01*
X133704999Y-69190675D01*
X133689557Y-69073371D01*
X133689555Y-69073366D01*
X133629100Y-68927414D01*
X133532924Y-68802075D01*
X133407586Y-68705899D01*
X133261631Y-68645444D01*
X133205000Y-68637987D01*
X133205000Y-69145500D01*
X133185315Y-69212539D01*
X133132511Y-69258294D01*
X133081000Y-69269500D01*
X132929000Y-69269500D01*
X132861961Y-69249815D01*
X132816206Y-69197011D01*
X132805000Y-69145500D01*
X132805000Y-68637987D01*
X132748368Y-68645444D01*
X132602413Y-68705899D01*
X132477075Y-68802075D01*
X132380899Y-68927413D01*
X132320445Y-69073365D01*
X132320444Y-69073369D01*
X132309038Y-69160000D01*
X132478568Y-69160000D01*
X132545607Y-69179685D01*
X132591362Y-69232489D01*
X132601306Y-69301647D01*
X132572281Y-69365203D01*
X132554058Y-69382372D01*
X132476718Y-69441718D01*
X132447123Y-69480288D01*
X132423183Y-69511487D01*
X132366755Y-69552689D01*
X132324807Y-69560000D01*
X132309041Y-69560000D01*
X132309039Y-69560001D01*
X132320442Y-69646628D01*
X132320525Y-69646935D01*
X132320525Y-69647251D01*
X132321504Y-69654689D01*
X132320525Y-69654817D01*
X132320526Y-69705116D01*
X132321017Y-69705181D01*
X132320526Y-69708903D01*
X132320527Y-69711106D01*
X132319956Y-69713235D01*
X132304500Y-69830638D01*
X132304500Y-70169363D01*
X132319953Y-70286753D01*
X132319956Y-70286762D01*
X132369959Y-70407481D01*
X132380464Y-70432841D01*
X132416592Y-70479925D01*
X132441786Y-70545092D01*
X132427748Y-70613537D01*
X132416593Y-70630895D01*
X132380900Y-70677411D01*
X132320445Y-70823365D01*
X132320444Y-70823369D01*
X132309038Y-70910000D01*
X132478568Y-70910000D01*
X132545607Y-70929685D01*
X132591362Y-70982489D01*
X132601306Y-71051647D01*
X132572281Y-71115203D01*
X132554058Y-71132372D01*
X132476718Y-71191718D01*
X132458203Y-71215848D01*
X132423183Y-71261487D01*
X132366755Y-71302689D01*
X132324807Y-71310000D01*
X132309041Y-71310000D01*
X132309039Y-71310001D01*
X132320442Y-71396628D01*
X132320525Y-71396935D01*
X132320525Y-71397251D01*
X132321504Y-71404689D01*
X132320525Y-71404817D01*
X132320526Y-71455116D01*
X132321017Y-71455181D01*
X132320526Y-71458903D01*
X132320527Y-71461106D01*
X132319956Y-71463235D01*
X132304500Y-71580638D01*
X132304500Y-71919363D01*
X132319953Y-72036753D01*
X132319956Y-72036762D01*
X132380464Y-72182841D01*
X132476718Y-72308282D01*
X132602159Y-72404536D01*
X132651258Y-72424873D01*
X132664694Y-72430439D01*
X132719097Y-72474280D01*
X132741162Y-72540575D01*
X132723883Y-72608274D01*
X132672745Y-72655884D01*
X132664694Y-72659561D01*
X132602160Y-72685463D01*
X132476718Y-72781718D01*
X132380463Y-72907160D01*
X132319956Y-73053237D01*
X132319955Y-73053239D01*
X132304500Y-73170638D01*
X132304500Y-73509363D01*
X132319955Y-73626763D01*
X132320263Y-73627912D01*
X132320263Y-73629101D01*
X132321016Y-73634821D01*
X132320263Y-73634920D01*
X132320265Y-73685081D01*
X132321017Y-73685180D01*
X132320265Y-73690884D01*
X132320266Y-73692079D01*
X132319956Y-73693234D01*
X132304500Y-73810638D01*
X132304500Y-74149363D01*
X132319953Y-74266753D01*
X132319956Y-74266762D01*
X132359266Y-74361666D01*
X132380464Y-74412841D01*
X132476718Y-74538282D01*
X132602159Y-74634536D01*
X132623099Y-74643209D01*
X132677501Y-74687048D01*
X132699567Y-74753342D01*
X132682289Y-74821042D01*
X132631152Y-74868653D01*
X132623102Y-74872330D01*
X132602412Y-74880900D01*
X132477075Y-74977075D01*
X132380899Y-75102413D01*
X132320445Y-75248365D01*
X132320444Y-75248369D01*
X132309038Y-75335000D01*
X132478568Y-75335000D01*
X132545607Y-75354685D01*
X132591362Y-75407489D01*
X132601306Y-75476647D01*
X132572281Y-75540203D01*
X132554058Y-75557372D01*
X132476718Y-75616718D01*
X132441684Y-75662376D01*
X132423183Y-75686487D01*
X132366755Y-75727689D01*
X132324807Y-75735000D01*
X132309041Y-75735000D01*
X132309039Y-75735001D01*
X132320442Y-75821628D01*
X132320525Y-75821935D01*
X132320525Y-75822251D01*
X132321504Y-75829689D01*
X132320525Y-75829817D01*
X132320526Y-75880116D01*
X132321017Y-75880181D01*
X132320526Y-75883903D01*
X132320527Y-75886106D01*
X132319956Y-75888235D01*
X132304500Y-76005638D01*
X132304500Y-76344363D01*
X131600500Y-76344363D01*
X131600500Y-59814283D01*
X131620185Y-59747244D01*
X131672989Y-59701489D01*
X131723980Y-59690284D01*
X135816893Y-59673230D01*
X135884012Y-59692635D01*
X135929987Y-59745248D01*
X135940218Y-59814364D01*
X135920000Y-59859128D01*
X135920000Y-66188024D01*
X135931804Y-66209642D01*
X135926820Y-66279334D01*
X135884948Y-66335267D01*
X135819484Y-66359684D01*
X135810638Y-66360000D01*
X135372155Y-66360000D01*
X135312627Y-66366401D01*
X135312620Y-66366403D01*
X135177913Y-66416645D01*
X135177906Y-66416649D01*
X135062812Y-66502809D01*
X135062809Y-66502812D01*
X134976649Y-66617906D01*
X134976645Y-66617913D01*
X134926403Y-66752620D01*
X134926401Y-66752627D01*
X134920000Y-66812155D01*
X134920000Y-67060000D01*
X137420000Y-67060000D01*
X137420000Y-66812172D01*
X137419999Y-66812155D01*
X137413598Y-66752627D01*
X137413596Y-66752620D01*
X137363354Y-66617913D01*
X137363350Y-66617906D01*
X137277190Y-66502812D01*
X137277187Y-66502809D01*
X137162093Y-66416649D01*
X137162088Y-66416646D01*
X137144756Y-66410182D01*
X137088823Y-66368310D01*
X137064406Y-66302846D01*
X137079258Y-66234573D01*
X137128663Y-66185168D01*
X137188090Y-66170000D01*
X152651910Y-66170000D01*
X152718949Y-66189685D01*
X152764704Y-66242489D01*
X152774648Y-66311647D01*
X152745623Y-66375203D01*
X152695244Y-66410182D01*
X152677911Y-66416646D01*
X152677906Y-66416649D01*
X152562812Y-66502809D01*
X152562809Y-66502812D01*
X152476649Y-66617906D01*
X152476645Y-66617913D01*
X152426403Y-66752620D01*
X152426401Y-66752627D01*
X152420000Y-66812155D01*
X152420000Y-67060000D01*
X154920000Y-67060000D01*
X154920000Y-66812172D01*
X154919999Y-66812155D01*
X154913598Y-66752627D01*
X154913596Y-66752620D01*
X154863354Y-66617913D01*
X154863350Y-66617906D01*
X154777190Y-66502812D01*
X154777187Y-66502809D01*
X154662093Y-66416649D01*
X154662086Y-66416645D01*
X154527379Y-66366403D01*
X154527372Y-66366401D01*
X154467844Y-66360000D01*
X154029362Y-66360000D01*
X153962323Y-66340315D01*
X153916568Y-66287511D01*
X153906624Y-66218353D01*
X153920000Y-66189063D01*
X153920000Y-63982600D01*
X157729728Y-63982600D01*
X157749570Y-64196731D01*
X157808424Y-64403584D01*
X157904277Y-64596082D01*
X157904282Y-64596091D01*
X157914510Y-64609633D01*
X158491551Y-64032593D01*
X158503772Y-64109750D01*
X158562216Y-64224454D01*
X158653245Y-64315483D01*
X158767949Y-64373927D01*
X158845104Y-64386147D01*
X158270536Y-64960714D01*
X158375650Y-65025797D01*
X158576182Y-65103483D01*
X158787574Y-65143000D01*
X159002624Y-65143000D01*
X159214015Y-65103483D01*
X159214025Y-65103480D01*
X159414549Y-65025797D01*
X159414551Y-65025796D01*
X159519660Y-64960714D01*
X158945094Y-64386147D01*
X159022249Y-64373927D01*
X159136953Y-64315483D01*
X159227982Y-64224454D01*
X159286426Y-64109750D01*
X159298646Y-64032594D01*
X159887079Y-64621026D01*
X159913182Y-64626762D01*
X159952480Y-64660742D01*
X160033512Y-64768046D01*
X160033515Y-64768049D01*
X160192503Y-64912985D01*
X160192505Y-64912986D01*
X160192506Y-64912987D01*
X160375427Y-65026247D01*
X160576045Y-65103967D01*
X160787528Y-65143500D01*
X160787530Y-65143500D01*
X161002672Y-65143500D01*
X161002674Y-65143500D01*
X161214157Y-65103967D01*
X161414775Y-65026247D01*
X161597696Y-64912987D01*
X161756692Y-64768044D01*
X161886346Y-64596353D01*
X161982245Y-64403762D01*
X162041123Y-64196829D01*
X162060974Y-63982600D01*
X162041123Y-63768371D01*
X161982245Y-63561438D01*
X161886346Y-63368847D01*
X161756692Y-63197156D01*
X161756688Y-63197152D01*
X161756686Y-63197150D01*
X161597698Y-63052214D01*
X161520609Y-63004483D01*
X161414775Y-62938953D01*
X161214157Y-62861233D01*
X161002674Y-62821700D01*
X160787528Y-62821700D01*
X160576045Y-62861233D01*
X160449176Y-62910382D01*
X160375429Y-62938952D01*
X160375428Y-62938952D01*
X160192503Y-63052214D01*
X160033515Y-63197150D01*
X160033512Y-63197153D01*
X159952482Y-63304455D01*
X159896373Y-63346091D01*
X159883294Y-63347957D01*
X159298646Y-63932605D01*
X159286426Y-63855450D01*
X159227982Y-63740746D01*
X159136953Y-63649717D01*
X159022249Y-63591273D01*
X158945093Y-63579052D01*
X159519660Y-63004484D01*
X159519659Y-63004483D01*
X159414553Y-62939404D01*
X159414547Y-62939402D01*
X159214015Y-62861716D01*
X159002624Y-62822200D01*
X158787574Y-62822200D01*
X158576182Y-62861716D01*
X158576181Y-62861716D01*
X158375651Y-62939401D01*
X158270536Y-63004484D01*
X158845105Y-63579052D01*
X158767949Y-63591273D01*
X158653245Y-63649717D01*
X158562216Y-63740746D01*
X158503772Y-63855450D01*
X158491551Y-63932606D01*
X157914510Y-63355565D01*
X157914509Y-63355565D01*
X157904281Y-63369110D01*
X157808424Y-63561615D01*
X157749570Y-63768468D01*
X157729728Y-63982600D01*
X153920000Y-63982600D01*
X153920000Y-59870000D01*
X148112518Y-59870000D01*
X148045479Y-59850315D01*
X147999724Y-59797511D01*
X147989780Y-59728353D01*
X148018805Y-59664797D01*
X148077583Y-59627023D01*
X148112000Y-59622001D01*
X166274985Y-59546321D01*
X166342104Y-59565726D01*
G37*
G04 #@! TD.AperFunction*
M02*
