G04 #@! TF.GenerationSoftware,KiCad,Pcbnew,7.0.8*
G04 #@! TF.CreationDate,2024-01-24T14:29:51-05:00*
G04 #@! TF.ProjectId,ESP32 Soil Moisture Sensor,45535033-3220-4536-9f69-6c204d6f6973,rev?*
G04 #@! TF.SameCoordinates,Original*
G04 #@! TF.FileFunction,Paste,Top*
G04 #@! TF.FilePolarity,Positive*
%FSLAX46Y46*%
G04 Gerber Fmt 4.6, Leading zero omitted, Abs format (unit mm)*
G04 Created by KiCad (PCBNEW 7.0.8) date 2024-01-24 14:29:51*
%MOMM*%
%LPD*%
G01*
G04 APERTURE LIST*
G04 Aperture macros list*
%AMRoundRect*
0 Rectangle with rounded corners*
0 $1 Rounding radius*
0 $2 $3 $4 $5 $6 $7 $8 $9 X,Y pos of 4 corners*
0 Add a 4 corners polygon primitive as box body*
4,1,4,$2,$3,$4,$5,$6,$7,$8,$9,$2,$3,0*
0 Add four circle primitives for the rounded corners*
1,1,$1+$1,$2,$3*
1,1,$1+$1,$4,$5*
1,1,$1+$1,$6,$7*
1,1,$1+$1,$8,$9*
0 Add four rect primitives between the rounded corners*
20,1,$1+$1,$2,$3,$4,$5,0*
20,1,$1+$1,$4,$5,$6,$7,0*
20,1,$1+$1,$6,$7,$8,$9,0*
20,1,$1+$1,$8,$9,$2,$3,0*%
G04 Aperture macros list end*
%ADD10R,1.524000X0.762000*%
%ADD11RoundRect,0.079500X0.100500X-0.079500X0.100500X0.079500X-0.100500X0.079500X-0.100500X-0.079500X0*%
%ADD12R,1.500000X0.900000*%
%ADD13R,0.900000X0.900000*%
%ADD14RoundRect,0.079500X-0.100500X0.079500X-0.100500X-0.079500X0.100500X-0.079500X0.100500X0.079500X0*%
G04 APERTURE END LIST*
D10*
X147802600Y-95752100D03*
X147802600Y-100247900D03*
X156997400Y-100247900D03*
X156997400Y-95752100D03*
D11*
X133005000Y-76200000D03*
X133005000Y-75510000D03*
D12*
X136170000Y-67310000D03*
X136170000Y-68580000D03*
X136170000Y-69850000D03*
X136170000Y-71120000D03*
X136170000Y-72390000D03*
X136170000Y-73660000D03*
X136170000Y-74930000D03*
X136170000Y-76200000D03*
X136170000Y-77470000D03*
X136170000Y-78740000D03*
X136170000Y-80010000D03*
X136170000Y-81280000D03*
X136170000Y-82550000D03*
X136170000Y-83820000D03*
X136170000Y-85090000D03*
X136170000Y-86360000D03*
X136170000Y-87630000D03*
X136170000Y-88900000D03*
X136170000Y-90170000D03*
X153670000Y-90170000D03*
X153670000Y-88900000D03*
X153670000Y-87630000D03*
X153670000Y-86360000D03*
X153670000Y-85090000D03*
X153670000Y-83820000D03*
X153670000Y-82550000D03*
X153670000Y-81280000D03*
X153670000Y-80010000D03*
X153670000Y-78740000D03*
X153670000Y-77470000D03*
X153670000Y-76200000D03*
X153670000Y-74930000D03*
X153670000Y-73660000D03*
X153670000Y-72390000D03*
X153670000Y-71120000D03*
X153670000Y-69850000D03*
X153670000Y-68580000D03*
X153670000Y-67310000D03*
D13*
X142015000Y-73705000D03*
X142020000Y-75105000D03*
X142020000Y-76505000D03*
X143420000Y-73705000D03*
X143420000Y-75105000D03*
X143420000Y-76505000D03*
X144820000Y-73705000D03*
X144820000Y-75105000D03*
X144820000Y-76505000D03*
D11*
X133005000Y-71775000D03*
X133005000Y-71085000D03*
D14*
X133005000Y-73315000D03*
X133005000Y-74005000D03*
D11*
X133005000Y-70025000D03*
X133005000Y-69335000D03*
M02*
