G04 #@! TF.GenerationSoftware,KiCad,Pcbnew,7.0.8*
G04 #@! TF.CreationDate,2024-01-24T14:29:51-05:00*
G04 #@! TF.ProjectId,ESP32 Soil Moisture Sensor,45535033-3220-4536-9f69-6c204d6f6973,rev?*
G04 #@! TF.SameCoordinates,Original*
G04 #@! TF.FileFunction,AssemblyDrawing,Top*
%FSLAX46Y46*%
G04 Gerber Fmt 4.6, Leading zero omitted, Abs format (unit mm)*
G04 Created by KiCad (PCBNEW 7.0.8) date 2024-01-24 14:29:51*
%MOMM*%
%LPD*%
G01*
G04 APERTURE LIST*
%ADD10C,0.200000*%
%ADD11C,0.400000*%
%ADD12C,0.150000*%
%ADD13C,0.040000*%
%ADD14C,0.025400*%
%ADD15C,0.100000*%
G04 APERTURE END LIST*
D10*
X145369673Y-109867219D02*
X145369673Y-108867219D01*
X145941101Y-109867219D02*
X145512530Y-109295790D01*
X145941101Y-108867219D02*
X145369673Y-109438647D01*
X146369673Y-109343409D02*
X146703006Y-109343409D01*
X146845863Y-109867219D02*
X146369673Y-109867219D01*
X146369673Y-109867219D02*
X146369673Y-108867219D01*
X146369673Y-108867219D02*
X146845863Y-108867219D01*
X147274435Y-109343409D02*
X147607768Y-109343409D01*
X147750625Y-109867219D02*
X147274435Y-109867219D01*
X147274435Y-109867219D02*
X147274435Y-108867219D01*
X147274435Y-108867219D02*
X147750625Y-108867219D01*
X148179197Y-109867219D02*
X148179197Y-108867219D01*
X148179197Y-108867219D02*
X148560149Y-108867219D01*
X148560149Y-108867219D02*
X148655387Y-108914838D01*
X148655387Y-108914838D02*
X148703006Y-108962457D01*
X148703006Y-108962457D02*
X148750625Y-109057695D01*
X148750625Y-109057695D02*
X148750625Y-109200552D01*
X148750625Y-109200552D02*
X148703006Y-109295790D01*
X148703006Y-109295790D02*
X148655387Y-109343409D01*
X148655387Y-109343409D02*
X148560149Y-109391028D01*
X148560149Y-109391028D02*
X148179197Y-109391028D01*
X149941102Y-109867219D02*
X149941102Y-108867219D01*
X149941102Y-108867219D02*
X150179197Y-108867219D01*
X150179197Y-108867219D02*
X150322054Y-108914838D01*
X150322054Y-108914838D02*
X150417292Y-109010076D01*
X150417292Y-109010076D02*
X150464911Y-109105314D01*
X150464911Y-109105314D02*
X150512530Y-109295790D01*
X150512530Y-109295790D02*
X150512530Y-109438647D01*
X150512530Y-109438647D02*
X150464911Y-109629123D01*
X150464911Y-109629123D02*
X150417292Y-109724361D01*
X150417292Y-109724361D02*
X150322054Y-109819600D01*
X150322054Y-109819600D02*
X150179197Y-109867219D01*
X150179197Y-109867219D02*
X149941102Y-109867219D01*
X151512530Y-109867219D02*
X151179197Y-109391028D01*
X150941102Y-109867219D02*
X150941102Y-108867219D01*
X150941102Y-108867219D02*
X151322054Y-108867219D01*
X151322054Y-108867219D02*
X151417292Y-108914838D01*
X151417292Y-108914838D02*
X151464911Y-108962457D01*
X151464911Y-108962457D02*
X151512530Y-109057695D01*
X151512530Y-109057695D02*
X151512530Y-109200552D01*
X151512530Y-109200552D02*
X151464911Y-109295790D01*
X151464911Y-109295790D02*
X151417292Y-109343409D01*
X151417292Y-109343409D02*
X151322054Y-109391028D01*
X151322054Y-109391028D02*
X150941102Y-109391028D01*
X152131578Y-109391028D02*
X152131578Y-109867219D01*
X151798245Y-108867219D02*
X152131578Y-109391028D01*
X152131578Y-109391028D02*
X152464911Y-108867219D01*
D11*
X137000000Y-112000000D02*
X161000000Y-112000000D01*
D12*
X147804761Y-97931009D02*
X147471428Y-97931009D01*
X147471428Y-98454819D02*
X147471428Y-97454819D01*
X147471428Y-97454819D02*
X147947618Y-97454819D01*
X148280952Y-98407200D02*
X148423809Y-98454819D01*
X148423809Y-98454819D02*
X148661904Y-98454819D01*
X148661904Y-98454819D02*
X148757142Y-98407200D01*
X148757142Y-98407200D02*
X148804761Y-98359580D01*
X148804761Y-98359580D02*
X148852380Y-98264342D01*
X148852380Y-98264342D02*
X148852380Y-98169104D01*
X148852380Y-98169104D02*
X148804761Y-98073866D01*
X148804761Y-98073866D02*
X148757142Y-98026247D01*
X148757142Y-98026247D02*
X148661904Y-97978628D01*
X148661904Y-97978628D02*
X148471428Y-97931009D01*
X148471428Y-97931009D02*
X148376190Y-97883390D01*
X148376190Y-97883390D02*
X148328571Y-97835771D01*
X148328571Y-97835771D02*
X148280952Y-97740533D01*
X148280952Y-97740533D02*
X148280952Y-97645295D01*
X148280952Y-97645295D02*
X148328571Y-97550057D01*
X148328571Y-97550057D02*
X148376190Y-97502438D01*
X148376190Y-97502438D02*
X148471428Y-97454819D01*
X148471428Y-97454819D02*
X148709523Y-97454819D01*
X148709523Y-97454819D02*
X148852380Y-97502438D01*
X149280952Y-98454819D02*
X149280952Y-97454819D01*
X149280952Y-97454819D02*
X149614285Y-98169104D01*
X149614285Y-98169104D02*
X149947618Y-97454819D01*
X149947618Y-97454819D02*
X149947618Y-98454819D01*
X150566666Y-97883390D02*
X150471428Y-97835771D01*
X150471428Y-97835771D02*
X150423809Y-97788152D01*
X150423809Y-97788152D02*
X150376190Y-97692914D01*
X150376190Y-97692914D02*
X150376190Y-97645295D01*
X150376190Y-97645295D02*
X150423809Y-97550057D01*
X150423809Y-97550057D02*
X150471428Y-97502438D01*
X150471428Y-97502438D02*
X150566666Y-97454819D01*
X150566666Y-97454819D02*
X150757142Y-97454819D01*
X150757142Y-97454819D02*
X150852380Y-97502438D01*
X150852380Y-97502438D02*
X150899999Y-97550057D01*
X150899999Y-97550057D02*
X150947618Y-97645295D01*
X150947618Y-97645295D02*
X150947618Y-97692914D01*
X150947618Y-97692914D02*
X150899999Y-97788152D01*
X150899999Y-97788152D02*
X150852380Y-97835771D01*
X150852380Y-97835771D02*
X150757142Y-97883390D01*
X150757142Y-97883390D02*
X150566666Y-97883390D01*
X150566666Y-97883390D02*
X150471428Y-97931009D01*
X150471428Y-97931009D02*
X150423809Y-97978628D01*
X150423809Y-97978628D02*
X150376190Y-98073866D01*
X150376190Y-98073866D02*
X150376190Y-98264342D01*
X150376190Y-98264342D02*
X150423809Y-98359580D01*
X150423809Y-98359580D02*
X150471428Y-98407200D01*
X150471428Y-98407200D02*
X150566666Y-98454819D01*
X150566666Y-98454819D02*
X150757142Y-98454819D01*
X150757142Y-98454819D02*
X150852380Y-98407200D01*
X150852380Y-98407200D02*
X150899999Y-98359580D01*
X150899999Y-98359580D02*
X150947618Y-98264342D01*
X150947618Y-98264342D02*
X150947618Y-98073866D01*
X150947618Y-98073866D02*
X150899999Y-97978628D01*
X150899999Y-97978628D02*
X150852380Y-97931009D01*
X150852380Y-97931009D02*
X150757142Y-97883390D01*
X151661904Y-97454819D02*
X151661904Y-98169104D01*
X151661904Y-98169104D02*
X151614285Y-98311961D01*
X151614285Y-98311961D02*
X151519047Y-98407200D01*
X151519047Y-98407200D02*
X151376190Y-98454819D01*
X151376190Y-98454819D02*
X151280952Y-98454819D01*
X152090476Y-98407200D02*
X152233333Y-98454819D01*
X152233333Y-98454819D02*
X152471428Y-98454819D01*
X152471428Y-98454819D02*
X152566666Y-98407200D01*
X152566666Y-98407200D02*
X152614285Y-98359580D01*
X152614285Y-98359580D02*
X152661904Y-98264342D01*
X152661904Y-98264342D02*
X152661904Y-98169104D01*
X152661904Y-98169104D02*
X152614285Y-98073866D01*
X152614285Y-98073866D02*
X152566666Y-98026247D01*
X152566666Y-98026247D02*
X152471428Y-97978628D01*
X152471428Y-97978628D02*
X152280952Y-97931009D01*
X152280952Y-97931009D02*
X152185714Y-97883390D01*
X152185714Y-97883390D02*
X152138095Y-97835771D01*
X152138095Y-97835771D02*
X152090476Y-97740533D01*
X152090476Y-97740533D02*
X152090476Y-97645295D01*
X152090476Y-97645295D02*
X152138095Y-97550057D01*
X152138095Y-97550057D02*
X152185714Y-97502438D01*
X152185714Y-97502438D02*
X152280952Y-97454819D01*
X152280952Y-97454819D02*
X152519047Y-97454819D01*
X152519047Y-97454819D02*
X152661904Y-97502438D01*
X153090476Y-98454819D02*
X153090476Y-97454819D01*
X153090476Y-97454819D02*
X153423809Y-98169104D01*
X153423809Y-98169104D02*
X153757142Y-97454819D01*
X153757142Y-97454819D02*
X153757142Y-98454819D01*
X154185714Y-98169104D02*
X154661904Y-98169104D01*
X154090476Y-98454819D02*
X154423809Y-97454819D01*
X154423809Y-97454819D02*
X154757142Y-98454819D01*
X155042857Y-98407200D02*
X155185714Y-98454819D01*
X155185714Y-98454819D02*
X155423809Y-98454819D01*
X155423809Y-98454819D02*
X155519047Y-98407200D01*
X155519047Y-98407200D02*
X155566666Y-98359580D01*
X155566666Y-98359580D02*
X155614285Y-98264342D01*
X155614285Y-98264342D02*
X155614285Y-98169104D01*
X155614285Y-98169104D02*
X155566666Y-98073866D01*
X155566666Y-98073866D02*
X155519047Y-98026247D01*
X155519047Y-98026247D02*
X155423809Y-97978628D01*
X155423809Y-97978628D02*
X155233333Y-97931009D01*
X155233333Y-97931009D02*
X155138095Y-97883390D01*
X155138095Y-97883390D02*
X155090476Y-97835771D01*
X155090476Y-97835771D02*
X155042857Y-97740533D01*
X155042857Y-97740533D02*
X155042857Y-97645295D01*
X155042857Y-97645295D02*
X155090476Y-97550057D01*
X155090476Y-97550057D02*
X155138095Y-97502438D01*
X155138095Y-97502438D02*
X155233333Y-97454819D01*
X155233333Y-97454819D02*
X155471428Y-97454819D01*
X155471428Y-97454819D02*
X155614285Y-97502438D01*
X155900000Y-97454819D02*
X156471428Y-97454819D01*
X156185714Y-98454819D02*
X156185714Y-97454819D01*
X157376190Y-98454819D02*
X157042857Y-97978628D01*
X156804762Y-98454819D02*
X156804762Y-97454819D01*
X156804762Y-97454819D02*
X157185714Y-97454819D01*
X157185714Y-97454819D02*
X157280952Y-97502438D01*
X157280952Y-97502438D02*
X157328571Y-97550057D01*
X157328571Y-97550057D02*
X157376190Y-97645295D01*
X157376190Y-97645295D02*
X157376190Y-97788152D01*
X157376190Y-97788152D02*
X157328571Y-97883390D01*
X157328571Y-97883390D02*
X157280952Y-97931009D01*
X157280952Y-97931009D02*
X157185714Y-97978628D01*
X157185714Y-97978628D02*
X156804762Y-97978628D01*
X151066667Y-98407200D02*
X151209524Y-98454819D01*
X151209524Y-98454819D02*
X151447619Y-98454819D01*
X151447619Y-98454819D02*
X151542857Y-98407200D01*
X151542857Y-98407200D02*
X151590476Y-98359580D01*
X151590476Y-98359580D02*
X151638095Y-98264342D01*
X151638095Y-98264342D02*
X151638095Y-98169104D01*
X151638095Y-98169104D02*
X151590476Y-98073866D01*
X151590476Y-98073866D02*
X151542857Y-98026247D01*
X151542857Y-98026247D02*
X151447619Y-97978628D01*
X151447619Y-97978628D02*
X151257143Y-97931009D01*
X151257143Y-97931009D02*
X151161905Y-97883390D01*
X151161905Y-97883390D02*
X151114286Y-97835771D01*
X151114286Y-97835771D02*
X151066667Y-97740533D01*
X151066667Y-97740533D02*
X151066667Y-97645295D01*
X151066667Y-97645295D02*
X151114286Y-97550057D01*
X151114286Y-97550057D02*
X151161905Y-97502438D01*
X151161905Y-97502438D02*
X151257143Y-97454819D01*
X151257143Y-97454819D02*
X151495238Y-97454819D01*
X151495238Y-97454819D02*
X151638095Y-97502438D01*
X151971429Y-97454819D02*
X152209524Y-98454819D01*
X152209524Y-98454819D02*
X152400000Y-97740533D01*
X152400000Y-97740533D02*
X152590476Y-98454819D01*
X152590476Y-98454819D02*
X152828572Y-97454819D01*
X153733333Y-98454819D02*
X153161905Y-98454819D01*
X153447619Y-98454819D02*
X153447619Y-97454819D01*
X153447619Y-97454819D02*
X153352381Y-97597676D01*
X153352381Y-97597676D02*
X153257143Y-97692914D01*
X153257143Y-97692914D02*
X153161905Y-97740533D01*
X149783800Y-94533819D02*
X149783800Y-94771914D01*
X149545705Y-94676676D02*
X149783800Y-94771914D01*
X149783800Y-94771914D02*
X150021895Y-94676676D01*
X149640943Y-94962390D02*
X149783800Y-94771914D01*
X149783800Y-94771914D02*
X149926657Y-94962390D01*
X149783800Y-94533819D02*
X149783800Y-94771914D01*
X149545705Y-94676676D02*
X149783800Y-94771914D01*
X149783800Y-94771914D02*
X150021895Y-94676676D01*
X149640943Y-94962390D02*
X149783800Y-94771914D01*
X149783800Y-94771914D02*
X149926657Y-94962390D01*
X165709580Y-85165239D02*
X165757200Y-85212858D01*
X165757200Y-85212858D02*
X165804819Y-85355715D01*
X165804819Y-85355715D02*
X165804819Y-85450953D01*
X165804819Y-85450953D02*
X165757200Y-85593810D01*
X165757200Y-85593810D02*
X165661961Y-85689048D01*
X165661961Y-85689048D02*
X165566723Y-85736667D01*
X165566723Y-85736667D02*
X165376247Y-85784286D01*
X165376247Y-85784286D02*
X165233390Y-85784286D01*
X165233390Y-85784286D02*
X165042914Y-85736667D01*
X165042914Y-85736667D02*
X164947676Y-85689048D01*
X164947676Y-85689048D02*
X164852438Y-85593810D01*
X164852438Y-85593810D02*
X164804819Y-85450953D01*
X164804819Y-85450953D02*
X164804819Y-85355715D01*
X164804819Y-85355715D02*
X164852438Y-85212858D01*
X164852438Y-85212858D02*
X164900057Y-85165239D01*
X165804819Y-84593810D02*
X165757200Y-84689048D01*
X165757200Y-84689048D02*
X165709580Y-84736667D01*
X165709580Y-84736667D02*
X165614342Y-84784286D01*
X165614342Y-84784286D02*
X165328628Y-84784286D01*
X165328628Y-84784286D02*
X165233390Y-84736667D01*
X165233390Y-84736667D02*
X165185771Y-84689048D01*
X165185771Y-84689048D02*
X165138152Y-84593810D01*
X165138152Y-84593810D02*
X165138152Y-84450953D01*
X165138152Y-84450953D02*
X165185771Y-84355715D01*
X165185771Y-84355715D02*
X165233390Y-84308096D01*
X165233390Y-84308096D02*
X165328628Y-84260477D01*
X165328628Y-84260477D02*
X165614342Y-84260477D01*
X165614342Y-84260477D02*
X165709580Y-84308096D01*
X165709580Y-84308096D02*
X165757200Y-84355715D01*
X165757200Y-84355715D02*
X165804819Y-84450953D01*
X165804819Y-84450953D02*
X165804819Y-84593810D01*
X165138152Y-83831905D02*
X165804819Y-83831905D01*
X165233390Y-83831905D02*
X165185771Y-83784286D01*
X165185771Y-83784286D02*
X165138152Y-83689048D01*
X165138152Y-83689048D02*
X165138152Y-83546191D01*
X165138152Y-83546191D02*
X165185771Y-83450953D01*
X165185771Y-83450953D02*
X165281009Y-83403334D01*
X165281009Y-83403334D02*
X165804819Y-83403334D01*
X165138152Y-82927143D02*
X165804819Y-82927143D01*
X165233390Y-82927143D02*
X165185771Y-82879524D01*
X165185771Y-82879524D02*
X165138152Y-82784286D01*
X165138152Y-82784286D02*
X165138152Y-82641429D01*
X165138152Y-82641429D02*
X165185771Y-82546191D01*
X165185771Y-82546191D02*
X165281009Y-82498572D01*
X165281009Y-82498572D02*
X165804819Y-82498572D01*
X165900057Y-82260477D02*
X165900057Y-81498572D01*
X164804819Y-81070000D02*
X164804819Y-80974762D01*
X164804819Y-80974762D02*
X164852438Y-80879524D01*
X164852438Y-80879524D02*
X164900057Y-80831905D01*
X164900057Y-80831905D02*
X164995295Y-80784286D01*
X164995295Y-80784286D02*
X165185771Y-80736667D01*
X165185771Y-80736667D02*
X165423866Y-80736667D01*
X165423866Y-80736667D02*
X165614342Y-80784286D01*
X165614342Y-80784286D02*
X165709580Y-80831905D01*
X165709580Y-80831905D02*
X165757200Y-80879524D01*
X165757200Y-80879524D02*
X165804819Y-80974762D01*
X165804819Y-80974762D02*
X165804819Y-81070000D01*
X165804819Y-81070000D02*
X165757200Y-81165238D01*
X165757200Y-81165238D02*
X165709580Y-81212857D01*
X165709580Y-81212857D02*
X165614342Y-81260476D01*
X165614342Y-81260476D02*
X165423866Y-81308095D01*
X165423866Y-81308095D02*
X165185771Y-81308095D01*
X165185771Y-81308095D02*
X164995295Y-81260476D01*
X164995295Y-81260476D02*
X164900057Y-81212857D01*
X164900057Y-81212857D02*
X164852438Y-81165238D01*
X164852438Y-81165238D02*
X164804819Y-81070000D01*
X165804819Y-79784286D02*
X165804819Y-80355714D01*
X165804819Y-80070000D02*
X164804819Y-80070000D01*
X164804819Y-80070000D02*
X164947676Y-80165238D01*
X164947676Y-80165238D02*
X165042914Y-80260476D01*
X165042914Y-80260476D02*
X165090533Y-80355714D01*
X165804819Y-79450952D02*
X165138152Y-78927143D01*
X165138152Y-79450952D02*
X165804819Y-78927143D01*
X164804819Y-78355714D02*
X164804819Y-78260476D01*
X164804819Y-78260476D02*
X164852438Y-78165238D01*
X164852438Y-78165238D02*
X164900057Y-78117619D01*
X164900057Y-78117619D02*
X164995295Y-78070000D01*
X164995295Y-78070000D02*
X165185771Y-78022381D01*
X165185771Y-78022381D02*
X165423866Y-78022381D01*
X165423866Y-78022381D02*
X165614342Y-78070000D01*
X165614342Y-78070000D02*
X165709580Y-78117619D01*
X165709580Y-78117619D02*
X165757200Y-78165238D01*
X165757200Y-78165238D02*
X165804819Y-78260476D01*
X165804819Y-78260476D02*
X165804819Y-78355714D01*
X165804819Y-78355714D02*
X165757200Y-78450952D01*
X165757200Y-78450952D02*
X165709580Y-78498571D01*
X165709580Y-78498571D02*
X165614342Y-78546190D01*
X165614342Y-78546190D02*
X165423866Y-78593809D01*
X165423866Y-78593809D02*
X165185771Y-78593809D01*
X165185771Y-78593809D02*
X164995295Y-78546190D01*
X164995295Y-78546190D02*
X164900057Y-78498571D01*
X164900057Y-78498571D02*
X164852438Y-78450952D01*
X164852438Y-78450952D02*
X164804819Y-78355714D01*
X165138152Y-77165238D02*
X165804819Y-77165238D01*
X164757200Y-77403333D02*
X165471485Y-77641428D01*
X165471485Y-77641428D02*
X165471485Y-77022381D01*
X165900057Y-76879524D02*
X165900057Y-76117619D01*
X165757200Y-75927142D02*
X165804819Y-75784285D01*
X165804819Y-75784285D02*
X165804819Y-75546190D01*
X165804819Y-75546190D02*
X165757200Y-75450952D01*
X165757200Y-75450952D02*
X165709580Y-75403333D01*
X165709580Y-75403333D02*
X165614342Y-75355714D01*
X165614342Y-75355714D02*
X165519104Y-75355714D01*
X165519104Y-75355714D02*
X165423866Y-75403333D01*
X165423866Y-75403333D02*
X165376247Y-75450952D01*
X165376247Y-75450952D02*
X165328628Y-75546190D01*
X165328628Y-75546190D02*
X165281009Y-75736666D01*
X165281009Y-75736666D02*
X165233390Y-75831904D01*
X165233390Y-75831904D02*
X165185771Y-75879523D01*
X165185771Y-75879523D02*
X165090533Y-75927142D01*
X165090533Y-75927142D02*
X164995295Y-75927142D01*
X164995295Y-75927142D02*
X164900057Y-75879523D01*
X164900057Y-75879523D02*
X164852438Y-75831904D01*
X164852438Y-75831904D02*
X164804819Y-75736666D01*
X164804819Y-75736666D02*
X164804819Y-75498571D01*
X164804819Y-75498571D02*
X164852438Y-75355714D01*
X165804819Y-74784285D02*
X165757200Y-74879523D01*
X165757200Y-74879523D02*
X165709580Y-74927142D01*
X165709580Y-74927142D02*
X165614342Y-74974761D01*
X165614342Y-74974761D02*
X165328628Y-74974761D01*
X165328628Y-74974761D02*
X165233390Y-74927142D01*
X165233390Y-74927142D02*
X165185771Y-74879523D01*
X165185771Y-74879523D02*
X165138152Y-74784285D01*
X165138152Y-74784285D02*
X165138152Y-74641428D01*
X165138152Y-74641428D02*
X165185771Y-74546190D01*
X165185771Y-74546190D02*
X165233390Y-74498571D01*
X165233390Y-74498571D02*
X165328628Y-74450952D01*
X165328628Y-74450952D02*
X165614342Y-74450952D01*
X165614342Y-74450952D02*
X165709580Y-74498571D01*
X165709580Y-74498571D02*
X165757200Y-74546190D01*
X165757200Y-74546190D02*
X165804819Y-74641428D01*
X165804819Y-74641428D02*
X165804819Y-74784285D01*
X165757200Y-73593809D02*
X165804819Y-73689047D01*
X165804819Y-73689047D02*
X165804819Y-73879523D01*
X165804819Y-73879523D02*
X165757200Y-73974761D01*
X165757200Y-73974761D02*
X165709580Y-74022380D01*
X165709580Y-74022380D02*
X165614342Y-74069999D01*
X165614342Y-74069999D02*
X165328628Y-74069999D01*
X165328628Y-74069999D02*
X165233390Y-74022380D01*
X165233390Y-74022380D02*
X165185771Y-73974761D01*
X165185771Y-73974761D02*
X165138152Y-73879523D01*
X165138152Y-73879523D02*
X165138152Y-73689047D01*
X165138152Y-73689047D02*
X165185771Y-73593809D01*
X165804819Y-73165237D02*
X164804819Y-73165237D01*
X165423866Y-73069999D02*
X165804819Y-72784285D01*
X165138152Y-72784285D02*
X165519104Y-73165237D01*
X165757200Y-71974761D02*
X165804819Y-72069999D01*
X165804819Y-72069999D02*
X165804819Y-72260475D01*
X165804819Y-72260475D02*
X165757200Y-72355713D01*
X165757200Y-72355713D02*
X165661961Y-72403332D01*
X165661961Y-72403332D02*
X165281009Y-72403332D01*
X165281009Y-72403332D02*
X165185771Y-72355713D01*
X165185771Y-72355713D02*
X165138152Y-72260475D01*
X165138152Y-72260475D02*
X165138152Y-72069999D01*
X165138152Y-72069999D02*
X165185771Y-71974761D01*
X165185771Y-71974761D02*
X165281009Y-71927142D01*
X165281009Y-71927142D02*
X165376247Y-71927142D01*
X165376247Y-71927142D02*
X165471485Y-72403332D01*
X165138152Y-71641427D02*
X165138152Y-71260475D01*
X164804819Y-71498570D02*
X165661961Y-71498570D01*
X165661961Y-71498570D02*
X165757200Y-71450951D01*
X165757200Y-71450951D02*
X165804819Y-71355713D01*
X165804819Y-71355713D02*
X165804819Y-71260475D01*
X158704819Y-81103333D02*
X159419104Y-81103333D01*
X159419104Y-81103333D02*
X159561961Y-81150952D01*
X159561961Y-81150952D02*
X159657200Y-81246190D01*
X159657200Y-81246190D02*
X159704819Y-81389047D01*
X159704819Y-81389047D02*
X159704819Y-81484285D01*
X159704819Y-80103333D02*
X159704819Y-80674761D01*
X159704819Y-80389047D02*
X158704819Y-80389047D01*
X158704819Y-80389047D02*
X158847676Y-80484285D01*
X158847676Y-80484285D02*
X158942914Y-80579523D01*
X158942914Y-80579523D02*
X158990533Y-80674761D01*
X133509819Y-77497856D02*
X133509819Y-77402618D01*
X133509819Y-77402618D02*
X133557438Y-77307380D01*
X133557438Y-77307380D02*
X133605057Y-77259761D01*
X133605057Y-77259761D02*
X133700295Y-77212142D01*
X133700295Y-77212142D02*
X133890771Y-77164523D01*
X133890771Y-77164523D02*
X134128866Y-77164523D01*
X134128866Y-77164523D02*
X134319342Y-77212142D01*
X134319342Y-77212142D02*
X134414580Y-77259761D01*
X134414580Y-77259761D02*
X134462200Y-77307380D01*
X134462200Y-77307380D02*
X134509819Y-77402618D01*
X134509819Y-77402618D02*
X134509819Y-77497856D01*
X134509819Y-77497856D02*
X134462200Y-77593094D01*
X134462200Y-77593094D02*
X134414580Y-77640713D01*
X134414580Y-77640713D02*
X134319342Y-77688332D01*
X134319342Y-77688332D02*
X134128866Y-77735951D01*
X134128866Y-77735951D02*
X133890771Y-77735951D01*
X133890771Y-77735951D02*
X133700295Y-77688332D01*
X133700295Y-77688332D02*
X133605057Y-77640713D01*
X133605057Y-77640713D02*
X133557438Y-77593094D01*
X133557438Y-77593094D02*
X133509819Y-77497856D01*
X134414580Y-76735951D02*
X134462200Y-76688332D01*
X134462200Y-76688332D02*
X134509819Y-76735951D01*
X134509819Y-76735951D02*
X134462200Y-76783570D01*
X134462200Y-76783570D02*
X134414580Y-76735951D01*
X134414580Y-76735951D02*
X134509819Y-76735951D01*
X134509819Y-75735952D02*
X134509819Y-76307380D01*
X134509819Y-76021666D02*
X133509819Y-76021666D01*
X133509819Y-76021666D02*
X133652676Y-76116904D01*
X133652676Y-76116904D02*
X133747914Y-76212142D01*
X133747914Y-76212142D02*
X133795533Y-76307380D01*
X133843152Y-74878809D02*
X134509819Y-74878809D01*
X133843152Y-75307380D02*
X134366961Y-75307380D01*
X134366961Y-75307380D02*
X134462200Y-75259761D01*
X134462200Y-75259761D02*
X134509819Y-75164523D01*
X134509819Y-75164523D02*
X134509819Y-75021666D01*
X134509819Y-75021666D02*
X134462200Y-74926428D01*
X134462200Y-74926428D02*
X134414580Y-74878809D01*
X133986009Y-74069285D02*
X133986009Y-74402618D01*
X134509819Y-74402618D02*
X133509819Y-74402618D01*
X133509819Y-74402618D02*
X133509819Y-73926428D01*
D13*
X132414765Y-75896666D02*
X132426670Y-75908570D01*
X132426670Y-75908570D02*
X132438574Y-75944285D01*
X132438574Y-75944285D02*
X132438574Y-75968094D01*
X132438574Y-75968094D02*
X132426670Y-76003808D01*
X132426670Y-76003808D02*
X132402860Y-76027618D01*
X132402860Y-76027618D02*
X132379050Y-76039523D01*
X132379050Y-76039523D02*
X132331431Y-76051427D01*
X132331431Y-76051427D02*
X132295717Y-76051427D01*
X132295717Y-76051427D02*
X132248098Y-76039523D01*
X132248098Y-76039523D02*
X132224289Y-76027618D01*
X132224289Y-76027618D02*
X132200479Y-76003808D01*
X132200479Y-76003808D02*
X132188574Y-75968094D01*
X132188574Y-75968094D02*
X132188574Y-75944285D01*
X132188574Y-75944285D02*
X132200479Y-75908570D01*
X132200479Y-75908570D02*
X132212384Y-75896666D01*
X132188574Y-75813332D02*
X132188574Y-75658570D01*
X132188574Y-75658570D02*
X132283812Y-75741904D01*
X132283812Y-75741904D02*
X132283812Y-75706189D01*
X132283812Y-75706189D02*
X132295717Y-75682380D01*
X132295717Y-75682380D02*
X132307622Y-75670475D01*
X132307622Y-75670475D02*
X132331431Y-75658570D01*
X132331431Y-75658570D02*
X132390955Y-75658570D01*
X132390955Y-75658570D02*
X132414765Y-75670475D01*
X132414765Y-75670475D02*
X132426670Y-75682380D01*
X132426670Y-75682380D02*
X132438574Y-75706189D01*
X132438574Y-75706189D02*
X132438574Y-75777618D01*
X132438574Y-75777618D02*
X132426670Y-75801427D01*
X132426670Y-75801427D02*
X132414765Y-75813332D01*
D12*
X137970476Y-92641009D02*
X138303809Y-92641009D01*
X138446666Y-93164819D02*
X137970476Y-93164819D01*
X137970476Y-93164819D02*
X137970476Y-92164819D01*
X137970476Y-92164819D02*
X138446666Y-92164819D01*
X138827619Y-93117200D02*
X138970476Y-93164819D01*
X138970476Y-93164819D02*
X139208571Y-93164819D01*
X139208571Y-93164819D02*
X139303809Y-93117200D01*
X139303809Y-93117200D02*
X139351428Y-93069580D01*
X139351428Y-93069580D02*
X139399047Y-92974342D01*
X139399047Y-92974342D02*
X139399047Y-92879104D01*
X139399047Y-92879104D02*
X139351428Y-92783866D01*
X139351428Y-92783866D02*
X139303809Y-92736247D01*
X139303809Y-92736247D02*
X139208571Y-92688628D01*
X139208571Y-92688628D02*
X139018095Y-92641009D01*
X139018095Y-92641009D02*
X138922857Y-92593390D01*
X138922857Y-92593390D02*
X138875238Y-92545771D01*
X138875238Y-92545771D02*
X138827619Y-92450533D01*
X138827619Y-92450533D02*
X138827619Y-92355295D01*
X138827619Y-92355295D02*
X138875238Y-92260057D01*
X138875238Y-92260057D02*
X138922857Y-92212438D01*
X138922857Y-92212438D02*
X139018095Y-92164819D01*
X139018095Y-92164819D02*
X139256190Y-92164819D01*
X139256190Y-92164819D02*
X139399047Y-92212438D01*
X139827619Y-93164819D02*
X139827619Y-92164819D01*
X139827619Y-92164819D02*
X140208571Y-92164819D01*
X140208571Y-92164819D02*
X140303809Y-92212438D01*
X140303809Y-92212438D02*
X140351428Y-92260057D01*
X140351428Y-92260057D02*
X140399047Y-92355295D01*
X140399047Y-92355295D02*
X140399047Y-92498152D01*
X140399047Y-92498152D02*
X140351428Y-92593390D01*
X140351428Y-92593390D02*
X140303809Y-92641009D01*
X140303809Y-92641009D02*
X140208571Y-92688628D01*
X140208571Y-92688628D02*
X139827619Y-92688628D01*
X140732381Y-92164819D02*
X141351428Y-92164819D01*
X141351428Y-92164819D02*
X141018095Y-92545771D01*
X141018095Y-92545771D02*
X141160952Y-92545771D01*
X141160952Y-92545771D02*
X141256190Y-92593390D01*
X141256190Y-92593390D02*
X141303809Y-92641009D01*
X141303809Y-92641009D02*
X141351428Y-92736247D01*
X141351428Y-92736247D02*
X141351428Y-92974342D01*
X141351428Y-92974342D02*
X141303809Y-93069580D01*
X141303809Y-93069580D02*
X141256190Y-93117200D01*
X141256190Y-93117200D02*
X141160952Y-93164819D01*
X141160952Y-93164819D02*
X140875238Y-93164819D01*
X140875238Y-93164819D02*
X140780000Y-93117200D01*
X140780000Y-93117200D02*
X140732381Y-93069580D01*
X141732381Y-92260057D02*
X141780000Y-92212438D01*
X141780000Y-92212438D02*
X141875238Y-92164819D01*
X141875238Y-92164819D02*
X142113333Y-92164819D01*
X142113333Y-92164819D02*
X142208571Y-92212438D01*
X142208571Y-92212438D02*
X142256190Y-92260057D01*
X142256190Y-92260057D02*
X142303809Y-92355295D01*
X142303809Y-92355295D02*
X142303809Y-92450533D01*
X142303809Y-92450533D02*
X142256190Y-92593390D01*
X142256190Y-92593390D02*
X141684762Y-93164819D01*
X141684762Y-93164819D02*
X142303809Y-93164819D01*
X142732381Y-92783866D02*
X143494286Y-92783866D01*
X143875238Y-92164819D02*
X144113333Y-93164819D01*
X144113333Y-93164819D02*
X144303809Y-92450533D01*
X144303809Y-92450533D02*
X144494285Y-93164819D01*
X144494285Y-93164819D02*
X144732381Y-92164819D01*
X145684761Y-93164819D02*
X145351428Y-92688628D01*
X145113333Y-93164819D02*
X145113333Y-92164819D01*
X145113333Y-92164819D02*
X145494285Y-92164819D01*
X145494285Y-92164819D02*
X145589523Y-92212438D01*
X145589523Y-92212438D02*
X145637142Y-92260057D01*
X145637142Y-92260057D02*
X145684761Y-92355295D01*
X145684761Y-92355295D02*
X145684761Y-92498152D01*
X145684761Y-92498152D02*
X145637142Y-92593390D01*
X145637142Y-92593390D02*
X145589523Y-92641009D01*
X145589523Y-92641009D02*
X145494285Y-92688628D01*
X145494285Y-92688628D02*
X145113333Y-92688628D01*
X146303809Y-92164819D02*
X146494285Y-92164819D01*
X146494285Y-92164819D02*
X146589523Y-92212438D01*
X146589523Y-92212438D02*
X146684761Y-92307676D01*
X146684761Y-92307676D02*
X146732380Y-92498152D01*
X146732380Y-92498152D02*
X146732380Y-92831485D01*
X146732380Y-92831485D02*
X146684761Y-93021961D01*
X146684761Y-93021961D02*
X146589523Y-93117200D01*
X146589523Y-93117200D02*
X146494285Y-93164819D01*
X146494285Y-93164819D02*
X146303809Y-93164819D01*
X146303809Y-93164819D02*
X146208571Y-93117200D01*
X146208571Y-93117200D02*
X146113333Y-93021961D01*
X146113333Y-93021961D02*
X146065714Y-92831485D01*
X146065714Y-92831485D02*
X146065714Y-92498152D01*
X146065714Y-92498152D02*
X146113333Y-92307676D01*
X146113333Y-92307676D02*
X146208571Y-92212438D01*
X146208571Y-92212438D02*
X146303809Y-92164819D01*
X147018095Y-92164819D02*
X147351428Y-93164819D01*
X147351428Y-93164819D02*
X147684761Y-92164819D01*
X148018095Y-92641009D02*
X148351428Y-92641009D01*
X148494285Y-93164819D02*
X148018095Y-93164819D01*
X148018095Y-93164819D02*
X148018095Y-92164819D01*
X148018095Y-92164819D02*
X148494285Y-92164819D01*
X149494285Y-93164819D02*
X149160952Y-92688628D01*
X148922857Y-93164819D02*
X148922857Y-92164819D01*
X148922857Y-92164819D02*
X149303809Y-92164819D01*
X149303809Y-92164819D02*
X149399047Y-92212438D01*
X149399047Y-92212438D02*
X149446666Y-92260057D01*
X149446666Y-92260057D02*
X149494285Y-92355295D01*
X149494285Y-92355295D02*
X149494285Y-92498152D01*
X149494285Y-92498152D02*
X149446666Y-92593390D01*
X149446666Y-92593390D02*
X149399047Y-92641009D01*
X149399047Y-92641009D02*
X149303809Y-92688628D01*
X149303809Y-92688628D02*
X148922857Y-92688628D01*
X149922857Y-92783866D02*
X150684762Y-92783866D01*
X151160952Y-92641009D02*
X151494285Y-92641009D01*
X151637142Y-93164819D02*
X151160952Y-93164819D01*
X151160952Y-93164819D02*
X151160952Y-92164819D01*
X151160952Y-92164819D02*
X151637142Y-92164819D01*
X146558095Y-74384819D02*
X146558095Y-75194342D01*
X146558095Y-75194342D02*
X146605714Y-75289580D01*
X146605714Y-75289580D02*
X146653333Y-75337200D01*
X146653333Y-75337200D02*
X146748571Y-75384819D01*
X146748571Y-75384819D02*
X146939047Y-75384819D01*
X146939047Y-75384819D02*
X147034285Y-75337200D01*
X147034285Y-75337200D02*
X147081904Y-75289580D01*
X147081904Y-75289580D02*
X147129523Y-75194342D01*
X147129523Y-75194342D02*
X147129523Y-74384819D01*
X148129523Y-75384819D02*
X147558095Y-75384819D01*
X147843809Y-75384819D02*
X147843809Y-74384819D01*
X147843809Y-74384819D02*
X147748571Y-74527676D01*
X147748571Y-74527676D02*
X147653333Y-74622914D01*
X147653333Y-74622914D02*
X147558095Y-74670533D01*
X134509819Y-72501428D02*
X134509819Y-73072856D01*
X134509819Y-72787142D02*
X133509819Y-72787142D01*
X133509819Y-72787142D02*
X133652676Y-72882380D01*
X133652676Y-72882380D02*
X133747914Y-72977618D01*
X133747914Y-72977618D02*
X133795533Y-73072856D01*
X133509819Y-71882380D02*
X133509819Y-71787142D01*
X133509819Y-71787142D02*
X133557438Y-71691904D01*
X133557438Y-71691904D02*
X133605057Y-71644285D01*
X133605057Y-71644285D02*
X133700295Y-71596666D01*
X133700295Y-71596666D02*
X133890771Y-71549047D01*
X133890771Y-71549047D02*
X134128866Y-71549047D01*
X134128866Y-71549047D02*
X134319342Y-71596666D01*
X134319342Y-71596666D02*
X134414580Y-71644285D01*
X134414580Y-71644285D02*
X134462200Y-71691904D01*
X134462200Y-71691904D02*
X134509819Y-71787142D01*
X134509819Y-71787142D02*
X134509819Y-71882380D01*
X134509819Y-71882380D02*
X134462200Y-71977618D01*
X134462200Y-71977618D02*
X134414580Y-72025237D01*
X134414580Y-72025237D02*
X134319342Y-72072856D01*
X134319342Y-72072856D02*
X134128866Y-72120475D01*
X134128866Y-72120475D02*
X133890771Y-72120475D01*
X133890771Y-72120475D02*
X133700295Y-72072856D01*
X133700295Y-72072856D02*
X133605057Y-72025237D01*
X133605057Y-72025237D02*
X133557438Y-71977618D01*
X133557438Y-71977618D02*
X133509819Y-71882380D01*
X133843152Y-70691904D02*
X134509819Y-70691904D01*
X133843152Y-71120475D02*
X134366961Y-71120475D01*
X134366961Y-71120475D02*
X134462200Y-71072856D01*
X134462200Y-71072856D02*
X134509819Y-70977618D01*
X134509819Y-70977618D02*
X134509819Y-70834761D01*
X134509819Y-70834761D02*
X134462200Y-70739523D01*
X134462200Y-70739523D02*
X134414580Y-70691904D01*
X133986009Y-69882380D02*
X133986009Y-70215713D01*
X134509819Y-70215713D02*
X133509819Y-70215713D01*
X133509819Y-70215713D02*
X133509819Y-69739523D01*
D13*
X132414765Y-71471666D02*
X132426670Y-71483570D01*
X132426670Y-71483570D02*
X132438574Y-71519285D01*
X132438574Y-71519285D02*
X132438574Y-71543094D01*
X132438574Y-71543094D02*
X132426670Y-71578808D01*
X132426670Y-71578808D02*
X132402860Y-71602618D01*
X132402860Y-71602618D02*
X132379050Y-71614523D01*
X132379050Y-71614523D02*
X132331431Y-71626427D01*
X132331431Y-71626427D02*
X132295717Y-71626427D01*
X132295717Y-71626427D02*
X132248098Y-71614523D01*
X132248098Y-71614523D02*
X132224289Y-71602618D01*
X132224289Y-71602618D02*
X132200479Y-71578808D01*
X132200479Y-71578808D02*
X132188574Y-71543094D01*
X132188574Y-71543094D02*
X132188574Y-71519285D01*
X132188574Y-71519285D02*
X132200479Y-71483570D01*
X132200479Y-71483570D02*
X132212384Y-71471666D01*
X132212384Y-71376427D02*
X132200479Y-71364523D01*
X132200479Y-71364523D02*
X132188574Y-71340713D01*
X132188574Y-71340713D02*
X132188574Y-71281189D01*
X132188574Y-71281189D02*
X132200479Y-71257380D01*
X132200479Y-71257380D02*
X132212384Y-71245475D01*
X132212384Y-71245475D02*
X132236193Y-71233570D01*
X132236193Y-71233570D02*
X132260003Y-71233570D01*
X132260003Y-71233570D02*
X132295717Y-71245475D01*
X132295717Y-71245475D02*
X132438574Y-71388332D01*
X132438574Y-71388332D02*
X132438574Y-71233570D01*
D12*
X132409819Y-74255238D02*
X132409819Y-74826666D01*
X132409819Y-74540952D02*
X131409819Y-74540952D01*
X131409819Y-74540952D02*
X131552676Y-74636190D01*
X131552676Y-74636190D02*
X131647914Y-74731428D01*
X131647914Y-74731428D02*
X131695533Y-74826666D01*
X131409819Y-73636190D02*
X131409819Y-73540952D01*
X131409819Y-73540952D02*
X131457438Y-73445714D01*
X131457438Y-73445714D02*
X131505057Y-73398095D01*
X131505057Y-73398095D02*
X131600295Y-73350476D01*
X131600295Y-73350476D02*
X131790771Y-73302857D01*
X131790771Y-73302857D02*
X132028866Y-73302857D01*
X132028866Y-73302857D02*
X132219342Y-73350476D01*
X132219342Y-73350476D02*
X132314580Y-73398095D01*
X132314580Y-73398095D02*
X132362200Y-73445714D01*
X132362200Y-73445714D02*
X132409819Y-73540952D01*
X132409819Y-73540952D02*
X132409819Y-73636190D01*
X132409819Y-73636190D02*
X132362200Y-73731428D01*
X132362200Y-73731428D02*
X132314580Y-73779047D01*
X132314580Y-73779047D02*
X132219342Y-73826666D01*
X132219342Y-73826666D02*
X132028866Y-73874285D01*
X132028866Y-73874285D02*
X131790771Y-73874285D01*
X131790771Y-73874285D02*
X131600295Y-73826666D01*
X131600295Y-73826666D02*
X131505057Y-73779047D01*
X131505057Y-73779047D02*
X131457438Y-73731428D01*
X131457438Y-73731428D02*
X131409819Y-73636190D01*
X132409819Y-72874285D02*
X131409819Y-72874285D01*
X132028866Y-72779047D02*
X132409819Y-72493333D01*
X131743152Y-72493333D02*
X132124104Y-72874285D01*
D13*
X133798574Y-73701666D02*
X133679527Y-73784999D01*
X133798574Y-73844523D02*
X133548574Y-73844523D01*
X133548574Y-73844523D02*
X133548574Y-73749285D01*
X133548574Y-73749285D02*
X133560479Y-73725475D01*
X133560479Y-73725475D02*
X133572384Y-73713570D01*
X133572384Y-73713570D02*
X133596193Y-73701666D01*
X133596193Y-73701666D02*
X133631908Y-73701666D01*
X133631908Y-73701666D02*
X133655717Y-73713570D01*
X133655717Y-73713570D02*
X133667622Y-73725475D01*
X133667622Y-73725475D02*
X133679527Y-73749285D01*
X133679527Y-73749285D02*
X133679527Y-73844523D01*
X133798574Y-73463570D02*
X133798574Y-73606427D01*
X133798574Y-73534999D02*
X133548574Y-73534999D01*
X133548574Y-73534999D02*
X133584289Y-73558808D01*
X133584289Y-73558808D02*
X133608098Y-73582618D01*
X133608098Y-73582618D02*
X133620003Y-73606427D01*
D12*
X133509819Y-71322856D02*
X133509819Y-71227618D01*
X133509819Y-71227618D02*
X133557438Y-71132380D01*
X133557438Y-71132380D02*
X133605057Y-71084761D01*
X133605057Y-71084761D02*
X133700295Y-71037142D01*
X133700295Y-71037142D02*
X133890771Y-70989523D01*
X133890771Y-70989523D02*
X134128866Y-70989523D01*
X134128866Y-70989523D02*
X134319342Y-71037142D01*
X134319342Y-71037142D02*
X134414580Y-71084761D01*
X134414580Y-71084761D02*
X134462200Y-71132380D01*
X134462200Y-71132380D02*
X134509819Y-71227618D01*
X134509819Y-71227618D02*
X134509819Y-71322856D01*
X134509819Y-71322856D02*
X134462200Y-71418094D01*
X134462200Y-71418094D02*
X134414580Y-71465713D01*
X134414580Y-71465713D02*
X134319342Y-71513332D01*
X134319342Y-71513332D02*
X134128866Y-71560951D01*
X134128866Y-71560951D02*
X133890771Y-71560951D01*
X133890771Y-71560951D02*
X133700295Y-71513332D01*
X133700295Y-71513332D02*
X133605057Y-71465713D01*
X133605057Y-71465713D02*
X133557438Y-71418094D01*
X133557438Y-71418094D02*
X133509819Y-71322856D01*
X134414580Y-70560951D02*
X134462200Y-70513332D01*
X134462200Y-70513332D02*
X134509819Y-70560951D01*
X134509819Y-70560951D02*
X134462200Y-70608570D01*
X134462200Y-70608570D02*
X134414580Y-70560951D01*
X134414580Y-70560951D02*
X134509819Y-70560951D01*
X134509819Y-69560952D02*
X134509819Y-70132380D01*
X134509819Y-69846666D02*
X133509819Y-69846666D01*
X133509819Y-69846666D02*
X133652676Y-69941904D01*
X133652676Y-69941904D02*
X133747914Y-70037142D01*
X133747914Y-70037142D02*
X133795533Y-70132380D01*
X133843152Y-68703809D02*
X134509819Y-68703809D01*
X133843152Y-69132380D02*
X134366961Y-69132380D01*
X134366961Y-69132380D02*
X134462200Y-69084761D01*
X134462200Y-69084761D02*
X134509819Y-68989523D01*
X134509819Y-68989523D02*
X134509819Y-68846666D01*
X134509819Y-68846666D02*
X134462200Y-68751428D01*
X134462200Y-68751428D02*
X134414580Y-68703809D01*
X133986009Y-67894285D02*
X133986009Y-68227618D01*
X134509819Y-68227618D02*
X133509819Y-68227618D01*
X133509819Y-68227618D02*
X133509819Y-67751428D01*
D13*
X132414765Y-69721666D02*
X132426670Y-69733570D01*
X132426670Y-69733570D02*
X132438574Y-69769285D01*
X132438574Y-69769285D02*
X132438574Y-69793094D01*
X132438574Y-69793094D02*
X132426670Y-69828808D01*
X132426670Y-69828808D02*
X132402860Y-69852618D01*
X132402860Y-69852618D02*
X132379050Y-69864523D01*
X132379050Y-69864523D02*
X132331431Y-69876427D01*
X132331431Y-69876427D02*
X132295717Y-69876427D01*
X132295717Y-69876427D02*
X132248098Y-69864523D01*
X132248098Y-69864523D02*
X132224289Y-69852618D01*
X132224289Y-69852618D02*
X132200479Y-69828808D01*
X132200479Y-69828808D02*
X132188574Y-69793094D01*
X132188574Y-69793094D02*
X132188574Y-69769285D01*
X132188574Y-69769285D02*
X132200479Y-69733570D01*
X132200479Y-69733570D02*
X132212384Y-69721666D01*
X132438574Y-69483570D02*
X132438574Y-69626427D01*
X132438574Y-69554999D02*
X132188574Y-69554999D01*
X132188574Y-69554999D02*
X132224289Y-69578808D01*
X132224289Y-69578808D02*
X132248098Y-69602618D01*
X132248098Y-69602618D02*
X132260003Y-69626427D01*
D14*
X149402800Y-96107700D02*
X149402800Y-95396500D01*
X149402800Y-95396500D02*
X147396200Y-95396500D01*
X147396200Y-95396500D02*
X147396200Y-96107700D01*
X147396200Y-96107700D02*
X149402800Y-96107700D01*
X149402800Y-100603500D02*
X149402800Y-99892300D01*
X149402800Y-99892300D02*
X147396200Y-99892300D01*
X147396200Y-99892300D02*
X147396200Y-100603500D01*
X147396200Y-100603500D02*
X149402800Y-100603500D01*
X155397200Y-99892300D02*
X155397200Y-100603500D01*
X155397200Y-100603500D02*
X157403800Y-100603500D01*
X157403800Y-100603500D02*
X157403800Y-99892300D01*
X157403800Y-99892300D02*
X155397200Y-99892300D01*
X155397200Y-95396500D02*
X155397200Y-96107700D01*
X155397200Y-96107700D02*
X157403800Y-96107700D01*
X157403800Y-96107700D02*
X157403800Y-95396500D01*
X157403800Y-95396500D02*
X155397200Y-95396500D01*
X149402800Y-100997200D02*
X155397200Y-100997200D01*
X155397200Y-100997200D02*
X155397200Y-95002800D01*
X155397200Y-95002800D02*
X149402800Y-95002800D01*
X149402800Y-95002800D02*
X149402800Y-100997200D01*
X152095200Y-95002800D02*
G75*
G03*
X152704800Y-95002800I304800J0D01*
G01*
D15*
X163300000Y-77520000D02*
X163300000Y-82620000D01*
X158500000Y-73770000D02*
X164300000Y-73770000D01*
X163300000Y-82620000D02*
X164300000Y-82620000D01*
X164300000Y-77520000D02*
X163300000Y-77520000D01*
X158500000Y-83870000D02*
X158500000Y-78220000D01*
X164300000Y-83820000D02*
X164300000Y-83870000D01*
X158500000Y-76870000D02*
X158500000Y-73770000D01*
X164300000Y-73770000D02*
X164300000Y-83820000D01*
X164300000Y-83870000D02*
X158500000Y-83870000D01*
X132855000Y-76155000D02*
X132855000Y-75555000D01*
X133155000Y-76155000D02*
X132855000Y-76155000D01*
X132855000Y-75555000D02*
X133155000Y-75555000D01*
X133155000Y-75555000D02*
X133155000Y-76155000D01*
X132855000Y-71730000D02*
X132855000Y-71130000D01*
X133155000Y-71730000D02*
X132855000Y-71730000D01*
X132855000Y-71130000D02*
X133155000Y-71130000D01*
X133155000Y-71130000D02*
X133155000Y-71730000D01*
X133155000Y-73360000D02*
X133155000Y-73960000D01*
X132855000Y-73360000D02*
X133155000Y-73360000D01*
X133155000Y-73960000D02*
X132855000Y-73960000D01*
X132855000Y-73960000D02*
X132855000Y-73360000D01*
X132855000Y-69980000D02*
X132855000Y-69380000D01*
X133155000Y-69980000D02*
X132855000Y-69980000D01*
X132855000Y-69380000D02*
X133155000Y-69380000D01*
X133155000Y-69380000D02*
X133155000Y-69980000D01*
M02*
