G04 #@! TF.GenerationSoftware,KiCad,Pcbnew,7.0.8*
G04 #@! TF.CreationDate,2024-01-24T14:29:51-05:00*
G04 #@! TF.ProjectId,ESP32 Soil Moisture Sensor,45535033-3220-4536-9f69-6c204d6f6973,rev?*
G04 #@! TF.SameCoordinates,Original*
G04 #@! TF.FileFunction,Legend,Top*
G04 #@! TF.FilePolarity,Positive*
%FSLAX46Y46*%
G04 Gerber Fmt 4.6, Leading zero omitted, Abs format (unit mm)*
G04 Created by KiCad (PCBNEW 7.0.8) date 2024-01-24 14:29:51*
%MOMM*%
%LPD*%
G01*
G04 APERTURE LIST*
G04 Aperture macros list*
%AMRoundRect*
0 Rectangle with rounded corners*
0 $1 Rounding radius*
0 $2 $3 $4 $5 $6 $7 $8 $9 X,Y pos of 4 corners*
0 Add a 4 corners polygon primitive as box body*
4,1,4,$2,$3,$4,$5,$6,$7,$8,$9,$2,$3,0*
0 Add four circle primitives for the rounded corners*
1,1,$1+$1,$2,$3*
1,1,$1+$1,$4,$5*
1,1,$1+$1,$6,$7*
1,1,$1+$1,$8,$9*
0 Add four rect primitives between the rounded corners*
20,1,$1+$1,$2,$3,$4,$5,0*
20,1,$1+$1,$4,$5,$6,$7,0*
20,1,$1+$1,$6,$7,$8,$9,0*
20,1,$1+$1,$8,$9,$2,$3,0*%
G04 Aperture macros list end*
%ADD10C,0.150000*%
%ADD11C,0.152400*%
%ADD12C,0.508000*%
%ADD13C,0.120000*%
%ADD14R,1.524000X0.762000*%
%ADD15C,1.100000*%
%ADD16R,2.030000X1.730000*%
%ADD17O,2.030000X1.730000*%
%ADD18C,1.320800*%
%ADD19RoundRect,0.100000X0.100000X-0.130000X0.100000X0.130000X-0.100000X0.130000X-0.100000X-0.130000X0*%
%ADD20R,1.500000X0.900000*%
%ADD21R,0.900000X0.900000*%
%ADD22RoundRect,0.100000X-0.100000X0.130000X-0.100000X-0.130000X0.100000X-0.130000X0.100000X0.130000X0*%
G04 APERTURE END LIST*
D10*
X151066667Y-98407200D02*
X151209524Y-98454819D01*
X151209524Y-98454819D02*
X151447619Y-98454819D01*
X151447619Y-98454819D02*
X151542857Y-98407200D01*
X151542857Y-98407200D02*
X151590476Y-98359580D01*
X151590476Y-98359580D02*
X151638095Y-98264342D01*
X151638095Y-98264342D02*
X151638095Y-98169104D01*
X151638095Y-98169104D02*
X151590476Y-98073866D01*
X151590476Y-98073866D02*
X151542857Y-98026247D01*
X151542857Y-98026247D02*
X151447619Y-97978628D01*
X151447619Y-97978628D02*
X151257143Y-97931009D01*
X151257143Y-97931009D02*
X151161905Y-97883390D01*
X151161905Y-97883390D02*
X151114286Y-97835771D01*
X151114286Y-97835771D02*
X151066667Y-97740533D01*
X151066667Y-97740533D02*
X151066667Y-97645295D01*
X151066667Y-97645295D02*
X151114286Y-97550057D01*
X151114286Y-97550057D02*
X151161905Y-97502438D01*
X151161905Y-97502438D02*
X151257143Y-97454819D01*
X151257143Y-97454819D02*
X151495238Y-97454819D01*
X151495238Y-97454819D02*
X151638095Y-97502438D01*
X151971429Y-97454819D02*
X152209524Y-98454819D01*
X152209524Y-98454819D02*
X152400000Y-97740533D01*
X152400000Y-97740533D02*
X152590476Y-98454819D01*
X152590476Y-98454819D02*
X152828572Y-97454819D01*
X153733333Y-98454819D02*
X153161905Y-98454819D01*
X153447619Y-98454819D02*
X153447619Y-97454819D01*
X153447619Y-97454819D02*
X153352381Y-97597676D01*
X153352381Y-97597676D02*
X153257143Y-97692914D01*
X153257143Y-97692914D02*
X153161905Y-97740533D01*
X147548600Y-93301919D02*
X147548600Y-93540014D01*
X147310505Y-93444776D02*
X147548600Y-93540014D01*
X147548600Y-93540014D02*
X147786695Y-93444776D01*
X147405743Y-93730490D02*
X147548600Y-93540014D01*
X147548600Y-93540014D02*
X147691457Y-93730490D01*
X147548600Y-93301919D02*
X147548600Y-93540014D01*
X147310505Y-93444776D02*
X147548600Y-93540014D01*
X147548600Y-93540014D02*
X147786695Y-93444776D01*
X147405743Y-93730490D02*
X147548600Y-93540014D01*
X147548600Y-93540014D02*
X147691457Y-93730490D01*
X156904819Y-78953333D02*
X157619104Y-78953333D01*
X157619104Y-78953333D02*
X157761961Y-79000952D01*
X157761961Y-79000952D02*
X157857200Y-79096190D01*
X157857200Y-79096190D02*
X157904819Y-79239047D01*
X157904819Y-79239047D02*
X157904819Y-79334285D01*
X157904819Y-77953333D02*
X157904819Y-78524761D01*
X157904819Y-78239047D02*
X156904819Y-78239047D01*
X156904819Y-78239047D02*
X157047676Y-78334285D01*
X157047676Y-78334285D02*
X157142914Y-78429523D01*
X157142914Y-78429523D02*
X157190533Y-78524761D01*
X132314580Y-76021666D02*
X132362200Y-76069285D01*
X132362200Y-76069285D02*
X132409819Y-76212142D01*
X132409819Y-76212142D02*
X132409819Y-76307380D01*
X132409819Y-76307380D02*
X132362200Y-76450237D01*
X132362200Y-76450237D02*
X132266961Y-76545475D01*
X132266961Y-76545475D02*
X132171723Y-76593094D01*
X132171723Y-76593094D02*
X131981247Y-76640713D01*
X131981247Y-76640713D02*
X131838390Y-76640713D01*
X131838390Y-76640713D02*
X131647914Y-76593094D01*
X131647914Y-76593094D02*
X131552676Y-76545475D01*
X131552676Y-76545475D02*
X131457438Y-76450237D01*
X131457438Y-76450237D02*
X131409819Y-76307380D01*
X131409819Y-76307380D02*
X131409819Y-76212142D01*
X131409819Y-76212142D02*
X131457438Y-76069285D01*
X131457438Y-76069285D02*
X131505057Y-76021666D01*
X131409819Y-75688332D02*
X131409819Y-75069285D01*
X131409819Y-75069285D02*
X131790771Y-75402618D01*
X131790771Y-75402618D02*
X131790771Y-75259761D01*
X131790771Y-75259761D02*
X131838390Y-75164523D01*
X131838390Y-75164523D02*
X131886009Y-75116904D01*
X131886009Y-75116904D02*
X131981247Y-75069285D01*
X131981247Y-75069285D02*
X132219342Y-75069285D01*
X132219342Y-75069285D02*
X132314580Y-75116904D01*
X132314580Y-75116904D02*
X132362200Y-75164523D01*
X132362200Y-75164523D02*
X132409819Y-75259761D01*
X132409819Y-75259761D02*
X132409819Y-75545475D01*
X132409819Y-75545475D02*
X132362200Y-75640713D01*
X132362200Y-75640713D02*
X132314580Y-75688332D01*
X144018095Y-57874819D02*
X144018095Y-58684342D01*
X144018095Y-58684342D02*
X144065714Y-58779580D01*
X144065714Y-58779580D02*
X144113333Y-58827200D01*
X144113333Y-58827200D02*
X144208571Y-58874819D01*
X144208571Y-58874819D02*
X144399047Y-58874819D01*
X144399047Y-58874819D02*
X144494285Y-58827200D01*
X144494285Y-58827200D02*
X144541904Y-58779580D01*
X144541904Y-58779580D02*
X144589523Y-58684342D01*
X144589523Y-58684342D02*
X144589523Y-57874819D01*
X145589523Y-58874819D02*
X145018095Y-58874819D01*
X145303809Y-58874819D02*
X145303809Y-57874819D01*
X145303809Y-57874819D02*
X145208571Y-58017676D01*
X145208571Y-58017676D02*
X145113333Y-58112914D01*
X145113333Y-58112914D02*
X145018095Y-58160533D01*
X140658094Y-62939104D02*
X141134284Y-62939104D01*
X140562856Y-63224819D02*
X140896189Y-62224819D01*
X140896189Y-62224819D02*
X141229522Y-63224819D01*
X141562856Y-62558152D02*
X141562856Y-63224819D01*
X141562856Y-62653390D02*
X141610475Y-62605771D01*
X141610475Y-62605771D02*
X141705713Y-62558152D01*
X141705713Y-62558152D02*
X141848570Y-62558152D01*
X141848570Y-62558152D02*
X141943808Y-62605771D01*
X141943808Y-62605771D02*
X141991427Y-62701009D01*
X141991427Y-62701009D02*
X141991427Y-63224819D01*
X142324761Y-62558152D02*
X142705713Y-62558152D01*
X142467618Y-62224819D02*
X142467618Y-63081961D01*
X142467618Y-63081961D02*
X142515237Y-63177200D01*
X142515237Y-63177200D02*
X142610475Y-63224819D01*
X142610475Y-63224819D02*
X142705713Y-63224819D01*
X143419999Y-63177200D02*
X143324761Y-63224819D01*
X143324761Y-63224819D02*
X143134285Y-63224819D01*
X143134285Y-63224819D02*
X143039047Y-63177200D01*
X143039047Y-63177200D02*
X142991428Y-63081961D01*
X142991428Y-63081961D02*
X142991428Y-62701009D01*
X142991428Y-62701009D02*
X143039047Y-62605771D01*
X143039047Y-62605771D02*
X143134285Y-62558152D01*
X143134285Y-62558152D02*
X143324761Y-62558152D01*
X143324761Y-62558152D02*
X143419999Y-62605771D01*
X143419999Y-62605771D02*
X143467618Y-62701009D01*
X143467618Y-62701009D02*
X143467618Y-62796247D01*
X143467618Y-62796247D02*
X142991428Y-62891485D01*
X143896190Y-62558152D02*
X143896190Y-63224819D01*
X143896190Y-62653390D02*
X143943809Y-62605771D01*
X143943809Y-62605771D02*
X144039047Y-62558152D01*
X144039047Y-62558152D02*
X144181904Y-62558152D01*
X144181904Y-62558152D02*
X144277142Y-62605771D01*
X144277142Y-62605771D02*
X144324761Y-62701009D01*
X144324761Y-62701009D02*
X144324761Y-63224819D01*
X144800952Y-62558152D02*
X144800952Y-63224819D01*
X144800952Y-62653390D02*
X144848571Y-62605771D01*
X144848571Y-62605771D02*
X144943809Y-62558152D01*
X144943809Y-62558152D02*
X145086666Y-62558152D01*
X145086666Y-62558152D02*
X145181904Y-62605771D01*
X145181904Y-62605771D02*
X145229523Y-62701009D01*
X145229523Y-62701009D02*
X145229523Y-63224819D01*
X146134285Y-63224819D02*
X146134285Y-62701009D01*
X146134285Y-62701009D02*
X146086666Y-62605771D01*
X146086666Y-62605771D02*
X145991428Y-62558152D01*
X145991428Y-62558152D02*
X145800952Y-62558152D01*
X145800952Y-62558152D02*
X145705714Y-62605771D01*
X146134285Y-63177200D02*
X146039047Y-63224819D01*
X146039047Y-63224819D02*
X145800952Y-63224819D01*
X145800952Y-63224819D02*
X145705714Y-63177200D01*
X145705714Y-63177200D02*
X145658095Y-63081961D01*
X145658095Y-63081961D02*
X145658095Y-62986723D01*
X145658095Y-62986723D02*
X145705714Y-62891485D01*
X145705714Y-62891485D02*
X145800952Y-62843866D01*
X145800952Y-62843866D02*
X146039047Y-62843866D01*
X146039047Y-62843866D02*
X146134285Y-62796247D01*
X147324762Y-62939104D02*
X147800952Y-62939104D01*
X147229524Y-63224819D02*
X147562857Y-62224819D01*
X147562857Y-62224819D02*
X147896190Y-63224819D01*
X148229524Y-63224819D02*
X148229524Y-62558152D01*
X148229524Y-62748628D02*
X148277143Y-62653390D01*
X148277143Y-62653390D02*
X148324762Y-62605771D01*
X148324762Y-62605771D02*
X148420000Y-62558152D01*
X148420000Y-62558152D02*
X148515238Y-62558152D01*
X149229524Y-63177200D02*
X149134286Y-63224819D01*
X149134286Y-63224819D02*
X148943810Y-63224819D01*
X148943810Y-63224819D02*
X148848572Y-63177200D01*
X148848572Y-63177200D02*
X148800953Y-63081961D01*
X148800953Y-63081961D02*
X148800953Y-62701009D01*
X148800953Y-62701009D02*
X148848572Y-62605771D01*
X148848572Y-62605771D02*
X148943810Y-62558152D01*
X148943810Y-62558152D02*
X149134286Y-62558152D01*
X149134286Y-62558152D02*
X149229524Y-62605771D01*
X149229524Y-62605771D02*
X149277143Y-62701009D01*
X149277143Y-62701009D02*
X149277143Y-62796247D01*
X149277143Y-62796247D02*
X148800953Y-62891485D01*
X150134286Y-63224819D02*
X150134286Y-62701009D01*
X150134286Y-62701009D02*
X150086667Y-62605771D01*
X150086667Y-62605771D02*
X149991429Y-62558152D01*
X149991429Y-62558152D02*
X149800953Y-62558152D01*
X149800953Y-62558152D02*
X149705715Y-62605771D01*
X150134286Y-63177200D02*
X150039048Y-63224819D01*
X150039048Y-63224819D02*
X149800953Y-63224819D01*
X149800953Y-63224819D02*
X149705715Y-63177200D01*
X149705715Y-63177200D02*
X149658096Y-63081961D01*
X149658096Y-63081961D02*
X149658096Y-62986723D01*
X149658096Y-62986723D02*
X149705715Y-62891485D01*
X149705715Y-62891485D02*
X149800953Y-62843866D01*
X149800953Y-62843866D02*
X150039048Y-62843866D01*
X150039048Y-62843866D02*
X150134286Y-62796247D01*
X132314580Y-71596666D02*
X132362200Y-71644285D01*
X132362200Y-71644285D02*
X132409819Y-71787142D01*
X132409819Y-71787142D02*
X132409819Y-71882380D01*
X132409819Y-71882380D02*
X132362200Y-72025237D01*
X132362200Y-72025237D02*
X132266961Y-72120475D01*
X132266961Y-72120475D02*
X132171723Y-72168094D01*
X132171723Y-72168094D02*
X131981247Y-72215713D01*
X131981247Y-72215713D02*
X131838390Y-72215713D01*
X131838390Y-72215713D02*
X131647914Y-72168094D01*
X131647914Y-72168094D02*
X131552676Y-72120475D01*
X131552676Y-72120475D02*
X131457438Y-72025237D01*
X131457438Y-72025237D02*
X131409819Y-71882380D01*
X131409819Y-71882380D02*
X131409819Y-71787142D01*
X131409819Y-71787142D02*
X131457438Y-71644285D01*
X131457438Y-71644285D02*
X131505057Y-71596666D01*
X131505057Y-71215713D02*
X131457438Y-71168094D01*
X131457438Y-71168094D02*
X131409819Y-71072856D01*
X131409819Y-71072856D02*
X131409819Y-70834761D01*
X131409819Y-70834761D02*
X131457438Y-70739523D01*
X131457438Y-70739523D02*
X131505057Y-70691904D01*
X131505057Y-70691904D02*
X131600295Y-70644285D01*
X131600295Y-70644285D02*
X131695533Y-70644285D01*
X131695533Y-70644285D02*
X131838390Y-70691904D01*
X131838390Y-70691904D02*
X132409819Y-71263332D01*
X132409819Y-71263332D02*
X132409819Y-70644285D01*
X134509819Y-73826666D02*
X134033628Y-74159999D01*
X134509819Y-74398094D02*
X133509819Y-74398094D01*
X133509819Y-74398094D02*
X133509819Y-74017142D01*
X133509819Y-74017142D02*
X133557438Y-73921904D01*
X133557438Y-73921904D02*
X133605057Y-73874285D01*
X133605057Y-73874285D02*
X133700295Y-73826666D01*
X133700295Y-73826666D02*
X133843152Y-73826666D01*
X133843152Y-73826666D02*
X133938390Y-73874285D01*
X133938390Y-73874285D02*
X133986009Y-73921904D01*
X133986009Y-73921904D02*
X134033628Y-74017142D01*
X134033628Y-74017142D02*
X134033628Y-74398094D01*
X134509819Y-72874285D02*
X134509819Y-73445713D01*
X134509819Y-73159999D02*
X133509819Y-73159999D01*
X133509819Y-73159999D02*
X133652676Y-73255237D01*
X133652676Y-73255237D02*
X133747914Y-73350475D01*
X133747914Y-73350475D02*
X133795533Y-73445713D01*
X132314580Y-69846666D02*
X132362200Y-69894285D01*
X132362200Y-69894285D02*
X132409819Y-70037142D01*
X132409819Y-70037142D02*
X132409819Y-70132380D01*
X132409819Y-70132380D02*
X132362200Y-70275237D01*
X132362200Y-70275237D02*
X132266961Y-70370475D01*
X132266961Y-70370475D02*
X132171723Y-70418094D01*
X132171723Y-70418094D02*
X131981247Y-70465713D01*
X131981247Y-70465713D02*
X131838390Y-70465713D01*
X131838390Y-70465713D02*
X131647914Y-70418094D01*
X131647914Y-70418094D02*
X131552676Y-70370475D01*
X131552676Y-70370475D02*
X131457438Y-70275237D01*
X131457438Y-70275237D02*
X131409819Y-70132380D01*
X131409819Y-70132380D02*
X131409819Y-70037142D01*
X131409819Y-70037142D02*
X131457438Y-69894285D01*
X131457438Y-69894285D02*
X131505057Y-69846666D01*
X132409819Y-68894285D02*
X132409819Y-69465713D01*
X132409819Y-69179999D02*
X131409819Y-69179999D01*
X131409819Y-69179999D02*
X131552676Y-69275237D01*
X131552676Y-69275237D02*
X131647914Y-69370475D01*
X131647914Y-69370475D02*
X131695533Y-69465713D01*
D11*
X149275800Y-101124200D02*
X155524200Y-101124200D01*
X155524200Y-101124200D02*
X155524200Y-94875800D01*
X155524200Y-94875800D02*
X149275800Y-94875800D01*
X149275800Y-94875800D02*
X149275800Y-101124200D01*
D12*
X165127500Y-63982600D02*
G75*
G03*
X165127500Y-63982600I-381000J0D01*
G01*
D13*
X164400000Y-73670000D02*
X164400000Y-83970000D01*
X163290000Y-82620000D02*
X163290000Y-77540000D01*
X158450000Y-76870000D02*
X158450000Y-73670000D01*
X164300000Y-82620000D02*
X163290000Y-82620000D01*
X163290000Y-77540000D02*
X164300000Y-77540000D01*
X158450000Y-73670000D02*
X164400000Y-73670000D01*
X164400000Y-83970000D02*
X158400000Y-83970000D01*
X158400000Y-83970000D02*
X158400000Y-78220000D01*
X135920000Y-59870000D02*
X135920000Y-66665000D01*
X135920000Y-66180000D02*
X153920000Y-66180000D01*
X135920000Y-91270000D02*
X135920000Y-90915000D01*
X135920000Y-91270000D02*
X153920000Y-91270000D01*
X153920000Y-59870000D02*
X135920000Y-59870000D01*
X153920000Y-59915000D02*
X153920000Y-66665000D01*
X153920000Y-91270000D02*
X153920000Y-90915000D01*
%LPC*%
D14*
X147802600Y-95752100D03*
X147802600Y-100247900D03*
X156997400Y-100247900D03*
X156997400Y-95752100D03*
D15*
X165000000Y-90540000D03*
D16*
X162840000Y-95620000D03*
D17*
X162840000Y-93080000D03*
X162840000Y-90540000D03*
X162840000Y-88000000D03*
D18*
X160895101Y-63982600D03*
X158895099Y-63982600D03*
D15*
X158840000Y-77540000D03*
D16*
X161000000Y-82620000D03*
D17*
X161000000Y-80080000D03*
X161000000Y-77540000D03*
X161000000Y-75000000D03*
D19*
X133005000Y-76175000D03*
X133005000Y-75535000D03*
D20*
X136170000Y-67310000D03*
X136170000Y-68580000D03*
X136170000Y-69850000D03*
X136170000Y-71120000D03*
X136170000Y-72390000D03*
X136170000Y-73660000D03*
X136170000Y-74930000D03*
X136170000Y-76200000D03*
X136170000Y-77470000D03*
X136170000Y-78740000D03*
X136170000Y-80010000D03*
X136170000Y-81280000D03*
X136170000Y-82550000D03*
X136170000Y-83820000D03*
X136170000Y-85090000D03*
X136170000Y-86360000D03*
X136170000Y-87630000D03*
X136170000Y-88900000D03*
X136170000Y-90170000D03*
X153670000Y-90170000D03*
X153670000Y-88900000D03*
X153670000Y-87630000D03*
X153670000Y-86360000D03*
X153670000Y-85090000D03*
X153670000Y-83820000D03*
X153670000Y-82550000D03*
X153670000Y-81280000D03*
X153670000Y-80010000D03*
X153670000Y-78740000D03*
X153670000Y-77470000D03*
X153670000Y-76200000D03*
X153670000Y-74930000D03*
X153670000Y-73660000D03*
X153670000Y-72390000D03*
X153670000Y-71120000D03*
X153670000Y-69850000D03*
X153670000Y-68580000D03*
X153670000Y-67310000D03*
D21*
X142015000Y-73705000D03*
X142020000Y-75105000D03*
X142020000Y-76505000D03*
X143420000Y-73705000D03*
X143420000Y-75105000D03*
X143420000Y-76505000D03*
X144820000Y-73705000D03*
X144820000Y-75105000D03*
X144820000Y-76505000D03*
D19*
X133005000Y-71750000D03*
X133005000Y-71110000D03*
D22*
X133005000Y-73340000D03*
X133005000Y-73980000D03*
D19*
X133005000Y-70000000D03*
X133005000Y-69360000D03*
%LPD*%
M02*
