M48
; DRILL file {KiCad 7.0.8} date Wed Jan 24 14:29:52 2024
; FORMAT={-:-/ absolute / metric / decimal}
; #@! TF.CreationDate,2024-01-24T14:29:52-05:00
; #@! TF.GenerationSoftware,Kicad,Pcbnew,7.0.8
; #@! TF.FileFunction,Plated,1,2,PTH
FMAT,2
METRIC
; #@! TA.AperFunction,Plated,PTH,ViaDrill
T1C0.400
; #@! TA.AperFunction,Plated,PTH,ComponentDrill
T2C0.813
; #@! TA.AperFunction,Plated,PTH,ComponentDrill
T3C1.020
%
G90
G05
T1
X139.0Y-71.0
X139.0Y-86.0
X140.0Y-68.0
X156.0Y-84.0
X157.0Y-70.0
X157.0Y-72.0
X157.0Y-79.0
X157.0Y-81.0
X161.0Y-72.0
X165.0Y-73.0
T2
X158.895Y-63.983
X160.895Y-63.983
T3
X161.0Y-75.0
X161.0Y-77.54
X161.0Y-80.08
X161.0Y-82.62
X162.84Y-88.0
X162.84Y-90.54
X162.84Y-93.08
X162.84Y-95.62
T0
M30
